<svg width="94" height="139" viewBox="0 0 94 139" fill="none" xmlns="http://www.w3.org/2000/svg">
<path d="M9.90353 126.126C10.1655 125.652 10.6893 124.704 11.1361 123.971C11.583 123.238 11.9528 122.72 12.0069 121.972C12.0612 121.225 11.7993 120.248 11.5571 119.176C11.3149 118.104 11.0922 116.938 11.2305 115.779C11.3687 114.62 11.8683 113.469 12.5511 112.389C13.234 111.308 14.1002 110.299 14.7255 109.338C15.3508 108.378 15.7351 107.468 15.9425 106.455C16.1498 105.442 16.1802 104.327 15.9826 103.198C15.785 102.07 15.3594 100.927 14.636 99.7899C13.9125 98.6524 12.8913 97.52 11.8757 96.5206C10.8602 95.5213 9.85045 94.655 9.0622 93.8341C8.27394 93.0132 7.70727 92.2376 7.49745 91.0075C7.28763 89.7773 7.43476 88.0927 7.77748 86.58C8.12014 85.0673 8.65845 83.7266 9.31613 82.6081C9.97384 81.4897 10.7509 80.5935 11.6862 79.7298C12.6216 78.866 13.7152 78.0347 15.0116 77.1789C16.308 76.3231 17.8071 75.4429 19.7228 74.9448C21.6385 74.4466 23.9708 74.3306 25.6936 74.4525C27.4164 74.5744 28.5297 74.9343 29.9209 75.5488C31.312 76.1634 32.9806 77.0327 34.8701 78.112C36.7597 79.1914 38.8699 80.4809 40.4609 81.73C42.0518 82.9791 43.1235 84.1877 44.0807 85.472C45.0379 86.7562 45.8807 88.1159 46.407 89.4108C46.9334 90.7057 47.1431 91.9358 47.2702 93.2479C47.3973 94.5601 47.4416 95.9541 47.1241 97.505C46.8065 99.0558 46.1271 100.763 45.1384 102.21C44.1498 103.656 42.8519 104.841 41.5296 105.824C40.2072 106.806 38.8605 107.586 37.2102 108.237C35.5599 108.889 33.6061 109.412 31.7933 109.568C29.9805 109.725 28.3088 109.514 26.8846 109.223C25.4604 108.931 24.2836 108.558 23.2773 108.319C22.271 108.08 21.4351 107.975 20.6546 108.244C19.874 108.513 19.1488 109.156 18.2535 110.156C17.3582 111.156 16.5374 112.201 15.8098 113.362C15.0821 114.523 14.6849 115.497 14.5279 116.586C14.3708 117.675 14.454 118.879 14.4106 120.057C14.3672 121.236 14.1973 122.388 13.7052 123.342C13.2129 124.297 12.3985 125.053 11.6676 125.563C10.9367 126.073 10.2891 126.336 9.96538 126.468C9.64164 126.6 9.6416 126.6 9.90353 126.126Z" fill="#EC8E8D" stroke="#BD0300" stroke-width="1.13386" stroke-miterlimit="3.2" stroke-linecap="round" stroke-linejoin="round"/>
<path d="M9.19637 93.7489C9.94543 93.0748 10.6945 92.4007 11.5121 92.0733C12.3298 91.7459 13.2158 91.7651 14.1021 91.7844" fill="#BD0300"/>
<path d="M8.91358 83.3409C9.88743 82.9241 10.8614 82.5073 12.1622 82.2509C13.4629 81.9946 15.0903 81.8987 16.9182 82.0311C18.7461 82.1635 20.7742 82.5241 22.8024 82.8847" fill="#BD0300"/>
<path d="M14.7139 77.3371C16.0936 77.2442 17.4734 77.1512 18.7678 77.332C20.0622 77.5128 21.2714 77.9673 22.4806 78.4217" fill="#BD0300"/>
<path d="M46.8632 96.5282C46.1723 94.7548 45.4815 92.9814 44.2606 91.1355C43.0397 89.2896 41.2887 87.3713 39.95 86.1319C38.6112 84.8924 37.6848 84.332 36.7583 83.7715" fill="#BD0300"/>
<path d="M43.3441 103.444C43.2743 102.387 43.2046 101.331 42.8447 100.195C42.4848 99.0586 41.8346 97.8425 41.1846 96.6265" fill="#BD0300"/>
<path d="M27.6943 73.6627C27.725 72.8323 27.786 71.1714 27.6318 69.7453C27.4775 68.3191 27.1079 67.1278 27.2396 65.2582C27.3713 63.3886 28.0047 60.8408 28.0841 58.6816C28.1636 56.5224 27.6894 54.7518 26.9755 52.6533C26.2617 50.5548 25.3081 48.1282 24.9764 45.6617C24.6447 43.1952 24.9349 40.6887 25.2827 38.4449C25.6306 36.2012 26.0361 34.2204 26.4177 33.9917C26.7992 33.763 27.1566 35.2865 27.5578 36.5959C27.9591 37.9053 28.4042 39.0004 29.0903 40.145C29.7764 41.2895 30.7034 42.4834 31.2261 41.8373C31.7489 41.1913 31.8673 38.7054 31.2563 36.3769C30.6453 34.0484 29.3048 31.8774 28.7619 29.8975C28.219 27.9177 28.4738 26.1291 28.3926 23.937C28.3115 21.7449 27.8945 19.1494 27.9066 16.5022C27.9187 13.855 28.3598 11.1563 28.6397 10.8789C28.9197 10.6016 29.0384 12.7456 29.2637 15.0509C29.489 17.3562 29.8207 19.8227 30.4969 21.9693C31.173 24.1158 32.1935 25.9424 32.8435 27.9442C33.4935 29.946 33.773 32.1229 34.3619 32.2434C34.9508 32.364 35.8491 30.4283 36.1311 28.5057C36.4133 26.5832 36.0791 24.6741 35.7935 22.6632C35.5079 20.6524 35.2709 18.5399 35.6204 17.1054C35.9699 15.6708 36.9058 14.9142 37.1227 13.1736C37.3397 11.433 36.8376 8.70849 36.9336 6.46895C37.0295 4.22942 37.7231 2.4749 38.0659 2.57299C38.4085 2.67099 38.3997 4.62153 38.5946 6.53015C38.7895 8.43877 39.1882 10.3054 39.3819 12.4926C39.5755 14.6799 39.5641 17.1877 39.4981 18.7361C39.4322 20.2845 39.3117 20.8734 39.183 22.0463C39.0544 23.2193 38.9177 24.9763 38.5541 27.1611C38.1904 29.3458 37.6 31.9581 38.3945 31.6187C39.1892 31.2794 41.369 27.9884 42.6995 25.3043C44.03 22.6203 44.5111 20.5434 44.7136 18.4651C44.9158 16.3868 44.8398 14.3074 45.2696 12.8893C45.6993 11.4711 46.6352 10.7145 47.0574 10.9683C47.4796 11.222 47.388 12.4863 47.3104 14.2275C47.2329 15.9688 47.1691 18.187 46.8468 20.7148C46.5246 23.2427 45.9437 26.0801 44.775 28.5184C43.6064 30.9567 41.8501 32.9957 40.0884 35.0615C38.3266 37.1273 36.5595 39.2198 35.5005 41.1227C34.4415 43.0256 34.0907 44.7388 34.5337 45.1641C34.9765 45.5895 36.213 44.727 37.6374 43.7636C39.0619 42.8001 40.6743 41.7358 41.7891 40.5137C42.904 39.2916 43.5212 37.9119 44.3957 36.5012C45.2703 35.0904 46.4021 33.6487 47.3308 32.1096C48.2595 30.5705 48.9851 28.9341 48.9693 29.3703C48.9535 29.8064 48.1964 32.315 47.5571 34.0256C46.9177 35.7361 46.3963 36.6484 45.7564 37.7974C45.1166 38.9464 44.3584 40.332 43.5564 42.1196C42.7543 43.9071 41.9084 46.0965 40.723 47.5092C39.5376 48.922 38.0129 49.5581 36.8555 50.7157C35.6981 51.8733 34.9081 53.5523 35.1666 54.4698C35.425 55.3873 36.7317 55.5433 36.9604 55.9248C37.1891 56.3063 36.3396 56.9134 35.6459 57.4408C34.9522 57.9681 34.4143 58.4157 33.9177 59.2066C33.4211 59.9975 32.9658 61.1314 32.2641 62.2428C31.5624 63.3542 30.6144 64.4431 30.2449 65.5668C29.8754 66.6904 30.0844 67.8488 30.1055 69.1082C30.1266 70.3677 29.9596 71.728 29.7994 72.7829C29.6391 73.8378 29.4856 74.5873 30.0245 75.1776C30.5634 75.7679 31.7946 76.1988 32.6983 76.6458C33.6021 77.0929 34.1783 77.5559 34.4974 77.4487C34.8165 77.3415 34.8785 76.664 34.9762 75.8596C35.0738 75.0552 35.2068 74.1239 35.5212 73.0571C35.8354 71.9903 36.3309 70.7881 36.8133 69.6024C37.2956 68.4166 37.765 67.2474 38.1489 66.262C38.5328 65.2765 38.8313 64.4749 38.7997 63.74C38.768 63.005 38.4063 62.3366 38.2409 61.4592C38.0754 60.5817 38.1063 59.4953 38.2068 58.4423C38.3073 57.3892 38.4777 56.3697 38.6614 55.2857C38.845 54.2018 39.0418 53.0535 39.3005 52.2054C39.5605 51.3576 39.8833 50.8101 40.0062 50.912C40.1292 51.0138 40.052 51.7649 40.5836 50.8073C41.1152 49.8495 42.2555 47.1831 43.1577 45.5957C44.06 44.0083 44.7243 43.5002 45.3706 42.1902C46.017 40.8801 46.6452 38.7682 47.3252 37.157C48.0052 35.5458 48.7367 34.4353 49.5176 33.6989C50.2985 32.9626 51.1289 32.6005 52.5156 31.7138C53.9024 30.8271 55.8455 29.4159 57.0588 28.0815C58.2722 26.747 58.7557 25.4894 59.4391 24.0843C60.1225 22.6791 61.0057 21.1265 61.895 19.8201C62.7843 18.5136 63.6796 17.4534 63.911 17.5196C64.1424 17.5858 63.7098 18.7785 63.2544 20.1738C62.7992 21.5691 62.3213 23.167 61.504 24.5824C60.6866 25.9978 59.5297 27.2306 58.5533 28.5946C57.5768 29.9586 56.7808 31.4537 56.224 32.8847C55.6672 34.3158 55.3497 35.6828 55.7651 35.862C56.1806 36.0414 57.3291 35.0329 58.4108 33.615C59.4924 32.1972 60.5072 30.3701 61.5383 28.9231C62.5694 27.4761 63.6167 26.4093 64.321 25.178C65.0254 23.9467 65.3865 22.551 66.1052 21.3415C66.8238 20.132 67.9001 19.1088 68.622 17.9754C69.344 16.8419 69.7116 15.5983 70.4236 15.0657C71.1356 14.5332 72.1919 14.7118 72.1687 15.8376C72.1454 16.9634 71.0428 19.0363 70.0252 20.6933C69.0076 22.3503 68.0752 23.5914 67.3639 24.7647C66.6526 25.9381 66.1625 27.0436 65.5663 28.3912C64.97 29.7388 64.2676 31.3284 63.3335 32.946C62.3993 34.5636 61.2334 36.2091 59.7831 37.4949C58.3328 38.7807 56.5982 39.7068 55.044 40.764C53.4897 41.8213 52.1159 43.0097 51.2911 44.4612C50.4663 45.9128 50.1906 47.6275 49.5179 49.0725C48.8452 50.5175 47.7755 51.6928 48.0241 51.9509C48.2727 52.209 49.8397 51.5501 50.9488 50.4583C52.0579 49.3664 52.7093 47.8417 53.6491 46.5644C54.589 45.2872 55.8172 44.2574 57.0443 43.51C58.2713 42.7626 59.4971 42.2976 60.6735 41.521C61.85 40.7444 62.9772 39.6562 63.8146 38.6029C64.6521 37.5496 65.1996 36.5313 65.7699 35.3102C66.3402 34.0892 66.9332 32.6656 67.772 31.3299C68.6107 29.9943 69.6953 28.7467 71.0654 27.5764C72.4356 26.406 74.0912 25.313 74.878 25.0596C75.6647 24.8062 75.5824 25.3922 75.0097 26.349C74.437 27.3058 73.3739 28.6332 72.6663 29.7884C71.9587 30.9436 71.6068 31.9267 71.0805 33.0248C70.5542 34.123 69.8536 35.3361 69.026 36.6175C68.1983 37.8989 67.2436 39.2485 66.2499 40.4205C65.2562 41.5925 64.2238 42.587 62.9885 43.5588C61.7531 44.5306 60.3152 45.4798 59.2246 46.4813C58.134 47.4827 57.3906 48.5364 57.6137 48.827C57.8369 49.1176 59.0264 48.6452 60.177 47.9952C61.3276 47.3452 62.4391 46.5176 63.8211 45.9338C65.2031 45.35 66.8555 45.01 68.1729 44.2811C69.4903 43.5522 70.4728 42.4345 71.5695 41.6792C72.6663 40.924 73.8772 40.5313 74.245 40.8516C74.6129 41.1718 74.1373 42.205 73.3806 43.0487C72.6237 43.8924 71.5855 44.5465 70.3209 45.5688C69.0564 46.5912 67.5658 47.9818 65.9355 49.0423C64.3052 50.1028 62.5353 50.8333 60.7181 51.6106C58.9008 52.3879 57.0363 53.212 54.6131 54.2798C52.19 55.3476 49.2083 56.659 47.1526 58.1411C45.0968 59.6233 43.9669 61.2761 43.2301 62.4819C42.4934 63.6877 42.1497 64.4464 43.0223 64.4178C43.8949 64.3892 45.9836 63.5733 47.9366 62.4092C49.8896 61.2452 51.7066 59.733 53.2592 59.0522C54.8117 58.3715 56.0997 58.5222 57.244 58.455C58.3883 58.3878 59.3888 58.1027 60.2828 57.3248C61.1769 56.5469 61.9648 55.2763 63.0949 54.3583C64.225 53.4403 65.6973 52.875 66.3455 52.8382C66.9936 52.8014 66.8177 53.2929 66.5327 53.8563C66.2479 54.4198 65.8539 55.0551 65.2027 55.7508C64.5515 56.4466 63.6429 57.2026 62.4771 58.019C61.3113 58.8355 59.8884 59.7124 57.9761 60.6775C56.0638 61.6426 53.6625 62.696 51.5703 63.4358C49.4781 64.1756 47.695 64.602 46.1474 64.9823C44.5999 65.3626 43.2878 65.6969 42.1915 66.358C41.0952 67.0191 40.2147 68.0071 39.5359 69.2058C38.8571 70.4047 38.38 71.8143 38.0453 72.9894C37.7104 74.1644 37.5177 75.1047 37.4318 75.7089C37.3458 76.3131 37.3665 76.5812 37.8132 76.2392C38.2601 75.8973 39.1331 74.9456 40.3565 74.2163C41.5798 73.4869 43.1533 72.98 44.6121 72.2047C46.071 71.4294 47.4151 70.3857 48.7417 69.2442C50.0683 68.1026 51.3772 66.8632 53.1225 66.107C54.8678 65.3509 57.0492 65.0779 58.9161 64.2148C60.7831 63.3517 62.3354 61.8985 63.839 60.1865C65.3426 58.4745 66.7974 56.5036 67.8306 54.9176C68.8637 53.3314 69.4749 52.1302 70.6604 50.7016C71.846 49.273 73.6057 47.617 74.6152 46.1561C75.6246 44.6952 75.8838 43.4293 76.0711 42.0545C76.2583 40.6796 76.3739 39.196 76.9451 37.7867C77.5163 36.3774 78.5431 35.0426 79.4936 33.8052C80.4441 32.5678 81.3182 31.4279 81.9164 30.4387C82.5146 29.4495 82.837 28.6111 82.9997 28.6444C83.1624 28.6777 83.1656 29.5828 83.1215 30.5347C83.0772 31.4866 82.9859 32.4853 82.5604 33.736C82.1348 34.9867 81.3748 36.4892 81.5474 36.7506C81.72 37.012 82.8249 36.0324 83.1245 36.2256C83.4241 36.419 82.9185 37.785 82.164 38.8929C81.4095 40.0009 80.4065 40.8507 79.7495 42.0351C79.0925 43.2195 78.7814 44.7386 78.2579 46.0069C77.7345 47.2752 76.9986 48.2927 76.0025 49.2004C75.0064 50.1082 73.7502 50.9061 72.9962 51.92C72.2422 52.9338 71.9904 54.1635 72.7289 54.1451C73.4675 54.1269 75.1965 52.8604 76.7335 51.6112C78.2706 50.362 79.6157 49.13 81.1556 48.051C82.6955 46.9719 84.4301 46.0458 84.9113 46.0878C85.3926 46.1298 84.6205 47.14 83.5369 48.1994C82.4533 49.2588 81.0581 50.3674 79.662 51.6643C78.2659 52.9612 76.869 54.4463 75.1651 55.7745C73.4612 57.1025 71.4503 58.2735 71.5094 58.8132C71.5684 59.3528 73.6975 59.2612 75.4082 58.8201C77.119 58.379 78.4115 57.5885 80.0198 57.3713C81.6282 57.1543 83.5524 57.5106 84.0315 58.0233C84.5107 58.5359 83.5446 59.2048 82.1088 59.6834C80.673 60.162 78.7676 60.4501 77.1246 61.1124C75.4817 61.7747 74.1013 62.8109 72.7912 63.5036C71.4812 64.1964 70.2415 64.5455 69.3877 65.2186C68.5339 65.8917 68.066 66.8887 67.3774 67.8594C66.6887 68.8301 65.7793 69.7744 64.5527 70.4277C63.3261 71.081 61.7824 71.4432 60.3196 71.5017C58.8567 71.5603 57.4748 71.315 56.4062 71.4731C55.3375 71.6311 54.5821 72.1925 53.5853 72.4594C52.5885 72.7264 51.3505 72.699 50.1404 72.9035C48.9304 73.108 47.7483 73.5442 46.7289 74.0138C45.7095 74.4834 44.8528 74.9863 44.061 75.5402C43.2693 76.0941 42.5425 76.699 41.9172 77.2681C41.2919 77.8373 40.7682 78.3706 40.3024 78.8971C39.8366 79.4235 39.4288 79.9429 38.5061 79.8482C37.5834 79.7536 36.1458 79.0447 34.8672 78.3872C33.5887 77.7298 32.4693 77.1237 31.295 76.4833C30.1207 75.8429 28.8917 75.1681 28.2772 74.8307C27.6627 74.4932 27.6637 74.4933 27.6943 73.6627Z" stroke="#BD0300" stroke-width="1.13386" stroke-miterlimit="3.2" stroke-linecap="round" stroke-linejoin="round"/>
</svg>
