<svg width="65" height="73" viewBox="0 0 65 73" fill="none" xmlns="http://www.w3.org/2000/svg">
<path d="M12.5473 27.526C11.5285 27.526 10.5097 27.526 9.56682 27.0985C8.62394 26.6711 7.75698 25.8162 7.34072 25.0847C6.92446 24.3532 6.95889 23.7452 6.90726 23.2553C6.85552 22.7655 6.71792 22.3939 6.75241 21.9885C6.78689 21.5832 6.99339 21.144 6.94174 20.688C6.89 20.2319 6.58027 19.759 6.23607 18.9482C5.89188 18.1374 5.51328 16.9889 5.58691 16.0445C5.66045 15.1002 6.18637 14.3601 6.71914 13.9324C7.2519 13.5048 7.79164 13.3897 8.03803 13.0903C8.28441 12.7909 8.23741 12.3073 8.35475 11.9618C8.47209 11.6164 8.75376 11.4091 8.84761 10.8564C8.94156 10.3037 8.84754 9.40558 9.03525 8.44986C9.22295 7.49414 9.69233 6.48087 10.4667 5.6518C11.241 4.82273 12.3203 4.17796 13.4114 3.82099C14.5025 3.46403 15.6052 3.39494 16.4147 3.48706C17.2243 3.57918 17.7404 3.8325 18.2449 3.63674C18.7494 3.44099 19.2421 2.79618 19.9109 2.30104C20.5796 1.8059 21.4243 1.46046 22.269 1.24169C23.1137 1.02291 23.9583 0.930806 24.6975 1.05747C25.4366 1.18413 26.0702 1.52956 26.5277 1.9556C26.9853 2.38165 27.2668 2.88828 27.5836 3.15312C27.9004 3.41795 28.2523 3.44099 28.745 3.45251C29.2378 3.46399 29.8713 3.46399 30.4227 3.48706C30.9741 3.5101 31.4434 3.55616 31.8188 3.78646C32.1942 4.01676 32.4759 4.43127 33.0742 4.55793C33.6725 4.68459 34.5875 4.5234 35.3267 4.54646C36.0658 4.56949 36.629 4.77674 37.1921 5.2143C37.7553 5.65186 38.3183 6.31971 38.9519 6.50394C39.5854 6.68817 40.2894 6.38881 40.8995 6.28517C41.5096 6.18154 42.0257 6.27368 42.4832 6.57303C42.9407 6.87242 43.3397 7.37905 43.8207 7.6554C44.3018 7.93175 44.8648 7.97782 45.1347 8.30024C45.4045 8.62266 45.381 9.22141 45.7213 9.49775C46.0615 9.7741 46.7655 9.72805 47.5046 9.85471C48.2437 9.98137 49.018 10.2807 49.5577 10.9141C50.0974 11.5474 50.4024 12.5146 50.5549 13.4358C50.7073 14.3569 50.7074 15.2321 50.4142 15.9229C50.1209 16.6138 49.5343 17.1205 49.3935 17.6386C49.2528 18.1568 49.5578 18.6864 49.7103 19.3198C49.8629 19.9531 49.863 20.69 49.5577 21.2888C49.2527 21.8875 48.6426 22.3481 48.4197 22.8433C48.1968 23.3384 48.361 23.868 48.279 24.2596C48.1969 24.6511 47.8683 24.9044 47.5398 25.1577" stroke="#BD0300" stroke-width="0.840113" stroke-miterlimit="3.2" stroke-linecap="round" stroke-linejoin="round"/>
<path d="M37.1279 5.15585C37.2915 4.67427 37.4551 4.19266 37.7472 3.86013C38.0393 3.52759 38.4598 3.34412 38.9271 3.35559C39.3944 3.36706 39.9085 3.57346 40.294 3.53906C40.6796 3.50467 40.9366 3.22947 41.3105 3.0804C41.6843 2.93133 42.1751 2.90839 42.6541 3.00014C43.133 3.09186 43.6003 3.29826 43.9742 3.64226C44.348 3.98627 44.6284 4.46786 44.8504 4.74305C45.0724 5.01823 45.236 5.08705 45.4813 5.04118C45.7267 4.99531 46.0539 4.83477 46.4861 4.74305C46.9184 4.65132 47.4558 4.6284 47.8998 4.74308C48.3437 4.85776 48.6941 5.11 48.9745 5.46547C49.2549 5.82094 49.4652 6.27959 49.5703 6.71533C49.6754 7.15107 49.6754 7.56385 49.8858 7.59825C50.0961 7.63265 50.5168 7.28866 50.9607 7.26573C51.4047 7.24281 51.872 7.54092 52.4094 7.48358C52.9469 7.42625 53.5543 7.01346 54.2787 6.87586C55.003 6.73827 55.8442 6.87587 56.5452 7.19694C57.2461 7.51801 57.807 8.02253 58.1107 8.71053C58.4145 9.39853 58.4613 10.27 58.438 11.0382C58.4146 11.8065 58.3212 12.4716 58.5898 13.0105C58.8585 13.5494 59.4894 13.9622 59.8749 14.375C60.2605 14.7878 60.4006 15.2006 60.459 15.8313C60.5175 16.462 60.4941 17.3105 60.6693 17.8723C60.8445 18.4342 61.2184 18.7094 61.4053 19.1796C61.5922 19.6497 61.5923 20.3147 61.4288 20.8422C61.2653 21.3697 60.938 21.7596 60.9497 22.115C60.9616 22.4705 61.3119 22.7915 61.5455 23.1126C61.7792 23.4336 61.8961 23.7547 61.8259 24.1675C61.7558 24.5803 61.4989 25.0848 61.3236 25.3715C61.1484 25.6581 61.0549 25.727 60.9614 25.7958" stroke="#BD0300" stroke-width="0.840113" stroke-miterlimit="3.2" stroke-linecap="round" stroke-linejoin="round"/>
<path d="M53.7199 16.5674C54.4061 16.6603 55.0924 16.7532 55.7195 17.0551C56.3466 17.3571 56.9146 17.8681 57.1986 18.4836C57.4826 19.0991 57.4826 19.8191 57.3998 20.423C57.3169 21.0269 57.1512 21.5146 57.2933 21.8863C57.4352 22.2579 57.885 22.5134 58.0625 22.9315C58.2399 23.3496 58.1453 23.9302 58.3464 24.2205C58.5476 24.5109 59.0445 24.5108 59.4587 24.5689C59.8728 24.627 60.2041 24.7431 60.4408 24.9638C60.6774 25.1844 60.8195 25.5096 60.9615 25.9393C61.1034 26.369 61.2454 26.9032 61.34 27.5303C61.4347 28.1574 61.482 28.8774 61.3163 29.4349C61.1506 29.9923 60.772 30.3872 60.5827 30.8982C60.3934 31.4091 60.3934 32.0362 60.3223 32.524C60.2514 33.0118 60.1093 33.3602 59.7779 33.6853C59.4466 34.0105 58.926 34.3124 58.6302 34.6841C58.3344 35.0557 58.2635 35.497 58.0386 35.7873C57.8138 36.0777 57.4351 36.217 57.1985 36.6119C56.9618 37.0067 56.8672 37.6571 56.5004 38.1564C56.1336 38.6558 55.4947 39.0042 55.1515 39.492C54.8084 39.9797 54.7611 40.6068 54.5481 41.0249C54.3351 41.443 53.9565 41.652 53.6489 41.7565C53.3412 41.8611 53.1046 41.8611 52.9863 42.0237C52.8679 42.1863 52.8679 42.5114 52.7259 42.8714C52.584 43.2315 52.3 43.6263 51.8859 43.9515C51.4717 44.2766 50.9274 44.5321 50.4186 44.6018C49.9098 44.6715 49.4365 44.5553 49.117 44.3463C48.7976 44.1372 48.632 43.8353 48.4663 43.5334" stroke="#BD0300" stroke-width="0.840113" stroke-miterlimit="3.2" stroke-linecap="round" stroke-linejoin="round"/>
<path d="M60.708 30.8755C61.2026 30.981 61.6972 31.0865 61.9982 31.2871C62.2993 31.4876 62.4067 31.783 62.4605 32.2262C62.5142 32.6694 62.5142 33.2604 62.7293 33.6086C62.9443 33.9569 63.3745 34.0624 63.6325 34.3262C63.8906 34.59 63.9765 35.0121 63.8261 35.4659C63.6754 35.9196 63.2885 36.4051 63.095 36.8166C62.9016 37.2282 62.9016 37.5658 63.095 37.8402C63.2885 38.1146 63.6755 38.3256 63.9013 38.7161C64.1271 39.1065 64.1916 39.6764 64.2023 40.3306C64.2122 40.9849 64.17 41.7236 63.8367 42.2512C63.5034 42.7788 62.8799 43.0954 62.4283 43.2537C61.9767 43.412 61.6972 43.412 61.4177 43.412" stroke="#BD0300" stroke-width="0.840113" stroke-miterlimit="3.2" stroke-linecap="round" stroke-linejoin="round"/>
<path d="M56.4502 38.6001C56.9448 38.6212 57.4393 38.6423 57.8694 38.7795C58.2995 38.9167 58.6651 39.1699 58.8586 39.5287C59.0523 39.8875 59.0737 40.3518 59.0415 40.7528C59.0092 41.1538 58.9232 41.4915 59.2459 41.7342C59.5684 41.9769 60.2995 42.1247 60.8263 42.4307C61.3532 42.7367 61.6757 43.201 61.9768 43.7181C62.2779 44.2352 62.5574 44.805 62.7186 45.5332C62.88 46.2613 62.9229 47.1477 62.8261 47.7914C62.7293 48.4351 62.4928 48.8361 61.9875 49.1105C61.4821 49.3849 60.708 49.5326 60.1919 49.5643C59.6758 49.5959 59.4177 49.5115 59.2779 49.7859C59.1382 50.0602 59.1168 50.6934 58.8695 51.0838C58.6222 51.4743 58.149 51.622 57.7835 51.6642C57.4179 51.7064 57.1599 51.6431 57.0417 51.8014C56.9233 51.9597 56.9449 52.3396 56.9019 52.7722C56.8589 53.2049 56.7515 53.6903 56.4289 54.1968C56.1063 54.7034 55.5687 55.231 54.7839 55.6214C53.9989 56.0119 52.9669 56.2652 51.9884 56.2652C51.01 56.2652 50.0854 56.0119 49.408 55.5581C48.7306 55.1044 48.3005 54.4501 47.7845 54.1335C47.2684 53.8169 46.6662 53.8381 46.3007 53.5531C45.9351 53.2682 45.8061 52.6773 45.5373 52.5823C45.2685 52.4874 44.86 52.8883 44.4191 52.9305C43.9783 52.9728 43.5052 52.6562 43.1397 52.2868C42.7741 51.9175 42.516 51.4954 42.43 50.8411C42.344 50.1868 42.4301 49.3004 42.1827 48.8361C41.9354 48.3718 41.3549 48.3296 40.7743 48.0341C40.1937 47.7387 39.6131 47.1899 39.3658 46.5779C39.1185 45.9658 39.2045 45.2905 39.2905 44.6151" stroke="#BD0300" stroke-width="0.840113" stroke-miterlimit="3.2" stroke-linecap="round" stroke-linejoin="round"/>
<path d="M44.0639 42.2725C43.9779 42.8002 43.8918 43.3278 43.6338 43.7816C43.3758 44.2353 42.9458 44.6152 42.3759 44.7946C41.806 44.974 41.0965 44.9529 40.4514 44.8474C39.8063 44.7418 39.2256 44.5519 38.774 44.4253C38.3225 44.2986 38 44.2353 37.7742 44.4675C37.5484 44.6996 37.4194 45.2273 37.0216 45.7654C36.6238 46.3036 35.9571 46.8524 35.1829 47.0318C34.4088 47.2112 33.5272 47.0213 32.8928 46.673C32.2585 46.3247 31.8715 45.8182 31.6457 45.3328C31.4199 44.8474 31.3553 44.3831 30.9898 44.0454C30.6242 43.7077 29.9577 43.4966 29.4308 43.0112C28.904 42.5258 28.5169 41.766 28.3556 41.1329C28.1942 40.4997 28.2589 39.9932 28.3987 39.5394C28.5384 39.0856 28.7535 38.6847 29.0115 38.4631C29.2696 38.2415 29.5706 38.1992 29.4846 38.1465C29.3985 38.0937 28.9255 38.0304 28.5815 37.7138C28.2374 37.3972 28.0223 36.8274 27.6675 36.553C27.3126 36.2787 26.8181 36.2998 26.302 36.0571C25.7859 35.8144 25.2484 35.3078 24.9043 34.7697C24.5603 34.2315 24.4097 33.6616 24.4204 33.1762C24.4303 32.6908 24.6032 32.2898 24.9365 31.8677C25.2698 31.4456 25.7644 31.0024 25.7322 31.034C25.6999 31.0657 25.1409 31.5722 24.8183 32.1421C24.4958 32.7119 24.4097 33.345 24.3452 33.8305C24.2806 34.3159 24.2378 34.6536 23.8614 34.8857C23.4851 35.1179 22.7755 35.2445 22.0551 35.2762C21.3347 35.3078 20.6036 35.2445 20.0552 34.9596C19.5069 34.6747 19.1414 34.1682 18.8941 33.6511C18.6468 33.134 18.5178 32.6064 18.206 32.5009C17.8941 32.3953 17.3995 32.7119 16.8082 32.7541C16.2168 32.7963 15.5288 32.5642 14.9589 32.2159C14.3891 31.8677 13.9375 31.4034 13.6579 30.9707C13.3784 30.5381 13.2709 30.1371 13.0774 29.8416C12.8839 29.5461 12.6042 29.3562 12.4859 28.9868C12.3676 28.6175 12.4106 28.0687 12.4536 27.52" stroke="#BD0300" stroke-width="0.840113" stroke-miterlimit="3.2" stroke-linecap="round" stroke-linejoin="round"/>
<path d="M16.6509 21.6708C17.0395 20.9897 17.4281 20.3085 17.6224 19.641C17.8167 18.9735 17.8167 18.3196 17.9694 17.7474C18.122 17.1752 18.4274 16.6848 18.7328 16.3987C19.0381 16.1127 19.3435 16.0309 19.7738 15.9901C20.2041 15.9492 20.7593 15.9492 21.1619 15.9492C21.5644 15.9492 21.8142 15.9492 22.0224 15.704C22.2306 15.4588 22.3972 14.9683 22.6886 14.6686C22.9801 14.3689 23.3965 14.26 23.7712 14.2736C24.146 14.2872 24.4791 14.4234 24.8123 14.5597" stroke="#BD0300" stroke-width="0.840113" stroke-miterlimit="3.2" stroke-linecap="round" stroke-linejoin="round"/>
<path d="M35.3887 12.353C35.8051 12.353 36.2215 12.353 36.6518 12.5165C37.0821 12.68 37.5262 13.0069 37.9842 13.1976C38.4423 13.3884 38.9142 13.4428 39.3583 13.4565C39.8025 13.4701 40.219 13.4428 40.6493 13.6336C41.0795 13.8243 41.5236 14.233 41.9678 14.6417" stroke="#BD0300" stroke-width="0.840113" stroke-miterlimit="3.2" stroke-linecap="round" stroke-linejoin="round"/>
<path d="M25.312 25.022C25.7839 25.0765 26.2558 25.1309 26.5334 25.3217C26.811 25.5124 26.8943 25.8393 27.1441 25.9619C27.3939 26.0845 27.8103 26.0028 28.2267 25.9211" stroke="#BD0300" stroke-width="0.840113" stroke-miterlimit="3.2" stroke-linecap="round" stroke-linejoin="round"/>
<path d="M39.8975 28.4365C40.324 28.6249 40.7505 28.8133 40.9531 29.1063C41.1557 29.3994 41.1345 29.797 41.081 30.1424C41.0277 30.4877 40.9423 30.7808 41.1768 30.8855C41.4114 30.9901 41.9659 30.9064 42.3711 31.0424C42.7763 31.1785 43.0322 31.5343 43.1069 31.8797C43.1816 32.225 43.075 32.5599 43.2562 32.8111C43.4373 33.0623 43.9067 33.2297 44.3758 33.3972" stroke="#BD0300" stroke-width="0.840113" stroke-miterlimit="3.2" stroke-linecap="round" stroke-linejoin="round"/>
<path d="M13.2797 30.4048C13.0579 30.9491 12.836 31.4935 12.6696 32.2419C12.5033 32.9904 12.3924 33.943 12.1844 35.1814C11.9764 36.4197 11.6714 37.9439 11.505 39.2775C11.3387 40.6112 11.311 41.7542 11.0891 42.9654C10.8672 44.1766 10.4512 45.4557 9.74404 47.0071C9.03691 48.5585 8.03858 50.382 7.13734 52.0967C6.23609 53.8114 5.43197 55.4171 4.69711 56.7644C3.96223 58.1116 3.29668 59.2003 2.68659 60.044C2.07652 60.8877 1.52192 61.4865 1.23075 62.3167C0.939576 63.1468 0.91191 64.2082 1.21695 65.12C1.522 66.0318 2.15971 66.7938 2.97778 67.6512C3.79587 68.5085 4.79416 69.4611 5.69542 70.1415C6.59667 70.8219 7.40086 71.2302 8.37144 71.5296C9.34201 71.8289 10.4789 72.0195 11.505 72.1283C12.531 72.2373 13.4461 72.2645 14.2364 72.1284C15.0268 71.9924 15.6923 71.6929 16.3579 71.2166C17.0234 70.7403 17.689 70.0871 18.3961 69.3931C19.1032 68.6991 19.8519 67.9642 20.5591 67.4199C21.2662 66.8755 21.9317 66.5217 22.5973 66.1135C23.2628 65.7052 23.9283 65.2425 24.5661 64.9567C25.2039 64.671 25.814 64.5621 26.2577 64.494C26.7014 64.4259 26.9787 64.3987 27.0064 64.2762C27.0342 64.1537 26.8124 63.936 26.3686 63.7727C25.9249 63.6095 25.2594 63.5006 24.5523 63.4189C23.8451 63.3372 23.0964 63.2827 22.4308 63.4189C21.7653 63.5548 21.1829 63.8815 20.5035 64.1265C19.8241 64.3714 19.0477 64.5347 18.2296 64.7797C17.4116 65.0246 16.552 65.3512 15.6785 65.8003C14.805 66.2494 13.9175 66.8209 13.0302 67.3925" stroke="#BD0300" stroke-width="1.40019" stroke-miterlimit="3.2" stroke-linecap="round" stroke-linejoin="round"/>
<path d="M19.2695 64.4534C19.9073 63.5825 20.545 62.7115 21.4879 61.7317C22.4307 60.7518 23.6786 59.6632 25.0097 58.6017C26.3408 57.5403 27.7551 56.506 29.0584 55.7304C30.3617 54.9547 31.5541 54.4376 32.7465 53.866C33.939 53.2944 35.1313 52.6684 36.3376 52.1649C37.5439 51.6614 38.7641 51.2804 39.7763 51.0354C40.7885 50.7905 41.5927 50.6816 42.3969 50.5728" stroke="#BD0300" stroke-width="1.40019" stroke-miterlimit="3.2" stroke-linecap="round" stroke-linejoin="round"/>
<path d="M18.8356 33.6846C18.6879 34.5057 18.5403 35.3267 18.5034 36.184C18.4665 37.0414 18.5402 37.9349 18.5279 38.8888C18.516 39.8427 18.4172 40.8569 18.0482 41.9316C17.6792 43.0063 17.0393 44.1413 16.6825 45.071C16.3258 46.0008 16.252 46.7253 15.8214 47.9931C15.3908 49.261 14.6034 51.0721 14.6772 50.9151C14.7509 50.7582 15.686 48.6331 16.5226 47.015C17.3592 45.397 18.0975 44.2862 18.6142 43.296C19.1309 42.3059 19.426 41.4365 19.9059 40.4343C20.3857 39.4321 21.05 38.2971 21.5052 37.4398C21.9604 36.5825 22.2065 36.0029 22.4525 35.4233" stroke="#BD0300" stroke-width="0.840113" stroke-miterlimit="3.2" stroke-linecap="round" stroke-linejoin="round"/>
<path d="M28.0627 37.1621C27.4722 37.79 26.8817 38.4179 26.3896 38.9854C25.8975 39.5529 25.5038 40.06 25.307 40.5551C25.1102 41.0502 25.1101 41.5331 24.9748 42.0765C24.8394 42.6199 24.5689 43.2236 24.3105 43.7187C24.0521 44.2137 23.8061 44.6001 23.4124 45.228C23.0187 45.8559 22.4774 46.7253 22.5513 46.7373C22.625 46.7494 23.314 45.9042 23.9414 45.1555C24.5688 44.4069 25.1347 43.7549 25.8482 42.9821C26.5618 42.2093 27.423 41.3158 28.2841 40.4223" stroke="#BD0300" stroke-width="0.840113" stroke-miterlimit="3.2" stroke-linecap="round" stroke-linejoin="round"/>
<path d="M32.2698 46.5083C31.4332 47.2811 30.5966 48.0538 29.7477 48.6214C28.8988 49.1889 28.0376 49.5511 27.2994 49.9134C26.5613 50.2756 25.9461 50.6379 25.491 51.0484C25.0357 51.4589 24.7406 51.9178 24.3469 52.4974C23.9532 53.077 23.461 53.7773 23.0304 54.3448C22.5998 54.9123 22.2309 55.347 22.5138 55.1417C22.7968 54.9364 23.7318 54.0912 24.4453 53.403C25.1589 52.7147 25.6509 52.1834 26.2292 51.7849C26.8074 51.3865 27.4717 51.1208 28.2099 50.7103C28.9481 50.2997 29.76 49.7443 30.5228 49.2734C31.2856 48.8025 31.999 48.4161 32.6388 48.1505C33.2785 47.8848 33.8445 47.7399 34.2013 47.5829C34.5581 47.426 34.7056 47.2569 34.8533 47.0879" stroke="#BD0300" stroke-width="0.840113" stroke-miterlimit="3.2" stroke-linecap="round" stroke-linejoin="round"/>
<path d="M18.4664 53.9702C17.9497 54.7671 17.4331 55.5641 16.8795 56.3369C16.3258 57.1096 15.7353 57.8583 15.1571 58.4862C14.5789 59.114 14.0129 59.6212 13.5577 60.1163C13.1025 60.6113 12.7581 61.0943 12.4136 61.5773" stroke="#BD0300" stroke-width="0.840113" stroke-miterlimit="3.2" stroke-linecap="round" stroke-linejoin="round"/>
<path d="M1.71045 61.9395C2.2272 62.012 2.74381 62.0844 3.29743 62.2292C3.85103 62.3742 4.44162 62.5915 5.08136 62.8451C5.72112 63.0986 6.41004 63.3884 7.08668 63.7748C7.76333 64.1612 8.42769 64.6442 9.05511 65.1151C9.68254 65.586 10.273 66.0449 10.7528 66.4675C11.2326 66.8901 11.6017 67.2765 11.9708 67.6629" stroke="#BD0300" stroke-width="0.840113" stroke-miterlimit="3.2" stroke-linecap="round" stroke-linejoin="round"/>
<path d="M14.0203 71.9787C13.9989 71.3709 13.9777 70.7631 13.8815 70.323C13.7854 69.8828 13.6147 69.6103 13.4438 69.3379" stroke="#BD0300" stroke-width="0.840113" stroke-miterlimit="3.2" stroke-linecap="round" stroke-linejoin="round"/>
</svg>
