<svg width="141" height="174" viewBox="0 0 141 174" fill="none" xmlns="http://www.w3.org/2000/svg">
<g clip-path="url(#clip0_136_660)">
<path d="M59.6927 82.5733C59.6312 82.4569 59.5698 82.3406 59.2366 81.8467C58.9034 81.3527 58.2986 80.4813 57.5225 79.592C56.7466 78.7027 55.7995 77.7955 54.6362 76.3804C53.4728 74.9654 52.0933 73.0426 50.8144 71.6093C49.5355 70.1761 48.3572 69.2325 47.171 68.264C45.9848 67.2955 44.7907 66.3021 43.8073 65.6261C42.8238 64.9501 42.051 64.5916 41.1206 64.2556C40.1903 63.9197 39.1024 63.6063 38.3216 63.2229C37.5409 62.8394 37.0674 62.3858 36.4735 62.245C35.8797 62.1041 35.1656 62.276 34.7481 63.1225C34.3306 63.969 34.2097 65.4899 33.6232 66.5822C33.0367 67.6745 31.9846 68.3382 30.9407 68.4227C29.8968 68.5072 28.8611 68.0125 27.9918 68.0416C27.1224 68.0706 26.4195 68.6234 25.3348 68.6659C24.2501 68.7085 22.7837 68.2408 22.2535 67.6953C21.7234 67.1499 22.1294 66.5268 22.659 65.9467C23.1886 65.3667 23.8417 64.8298 24.5344 64.4176C25.2271 64.0053 25.9594 63.7178 26.345 63.3757C26.7305 63.0336 26.7692 62.6369 27.2794 62.2552C27.7896 61.8735 28.7713 61.5067 29.6873 61.106C30.6033 60.7052 31.4535 60.2704 31.3517 59.8634C31.2499 59.4565 30.1961 59.0775 28.3568 58.6459C26.5174 58.2143 23.8927 57.7302 22.3107 57.2443C20.7288 56.7584 20.1895 56.2709 19.9038 56.5813C19.618 56.8917 19.5857 58.0001 18.9599 58.3636C18.3341 58.7271 17.1147 58.3457 16.3545 57.6812C15.5944 57.0166 15.2933 56.0689 15.7504 55.3472C16.2075 54.6255 17.4227 54.1297 18.3364 53.8944C19.25 53.6591 19.862 53.6842 20.1636 53.4237C20.4652 53.1632 20.4564 52.6169 20.7387 52.5547C21.0209 52.4924 21.5942 52.9144 22.0182 52.7797C22.4421 52.6451 22.7167 51.9538 23.1847 52.217C23.6527 52.4802 24.314 53.6977 25.0231 54.4609C25.7323 55.224 26.4893 55.5327 27.2894 55.7178C28.0895 55.903 28.9326 55.9646 29.0699 55.6189C29.2072 55.2733 28.6387 54.5205 28.1346 53.8844C27.6306 53.2483 27.191 52.729 27.2547 52.3244C27.3184 51.9198 27.8852 51.6299 28.0985 51.1778C28.3118 50.7257 28.1716 50.1114 28.4119 50.0899C28.6522 50.0685 29.273 50.64 29.8146 50.9621C30.3562 51.2843 30.8186 51.3571 31.3059 51.422C31.7933 51.4868 32.3055 51.5436 32.7098 52.2114C33.1141 52.8792 33.4104 54.1579 33.6932 55.2211C33.976 56.2844 34.2454 57.1323 34.8662 57.7039C35.487 58.2754 36.4593 58.5706 37.341 58.8396C38.2227 59.1087 39.0136 59.3515 39.6198 59.7905C40.226 60.2294 40.6472 60.8643 41.3576 61.5447C42.0679 62.225 43.0672 62.9509 44.207 63.6871C45.3469 64.4232 46.6272 65.1696 47.6345 65.9204C48.6417 66.6712 49.3757 67.4264 50.0611 68.1147C50.7465 68.803 51.3832 69.4244 51.0944 68.7748C50.8058 68.1252 49.5917 66.2047 48.62 64.7013C47.6482 63.198 46.9189 62.1119 45.9912 61.0064C45.0634 59.9008 43.9374 58.776 42.7163 57.3518C41.4952 55.9276 40.179 54.2042 39.0691 52.5251C37.9592 50.846 37.0555 49.2112 36.0418 47.7487C35.0282 46.2861 33.9045 44.9957 32.9982 44.1305C32.0919 43.2653 31.403 42.8251 30.8396 42.8668C30.2763 42.9085 29.8386 43.4319 29.1597 43.4554C28.4807 43.4789 27.5607 43.0024 27.247 42.3608C26.9334 41.7191 27.2262 40.9123 27.2459 40.1098C27.2655 39.3074 27.012 38.5093 26.5646 37.9651C26.1172 37.4208 25.4758 37.1304 24.7051 37.2105C23.9343 37.2906 23.0342 37.7412 22.0504 37.6693C21.0666 37.5974 19.9993 37.003 19.0305 36.4596C18.0617 35.9163 17.1915 35.424 16.6772 34.9285C16.1629 34.4329 16.0044 33.9342 16.5044 33.693C17.0043 33.4517 18.1626 33.4682 19.1476 33.4574C20.1325 33.4465 20.944 33.4083 21.0077 33.0037C21.0713 32.5991 20.3871 31.828 19.7845 31.1409C19.1819 30.4538 18.6608 29.8506 18.175 29.0989C17.6891 28.3472 17.2384 27.4471 17.3904 27.2341C17.5424 27.0211 18.297 27.4952 19.2262 27.9139C20.1554 28.3326 21.2591 28.6958 22.1032 29.2788C22.9473 29.8618 23.5318 30.6645 24.2251 31.3778C24.9184 32.091 25.7205 32.7147 26.0447 32.6117C26.3689 32.5087 26.2152 31.679 26.0931 30.949C25.9711 30.219 25.8807 29.5889 25.9626 29.0687C26.0444 28.5485 26.2985 28.1383 26.6963 28.0943C27.0941 28.0502 27.6358 28.3725 28.1149 29.0165C28.594 29.6605 29.0106 30.6264 29.1383 31.5468C29.2659 32.4672 29.1045 33.342 29.6796 34.8067C30.2547 36.2713 31.5661 38.3256 32.9615 40.2984C34.3569 42.2712 35.8362 44.1624 37.2236 46.1103C38.6111 48.0582 39.9067 50.0626 41.1085 51.6851C42.3102 53.3076 43.4181 54.5481 44.4852 55.7466C45.5523 56.9451 46.5785 58.1016 47.3352 59.0144C48.0919 59.9271 48.5789 60.5962 48.1429 59.8286C47.7069 59.0611 46.3479 56.8571 44.8654 54.6099C43.3828 52.3628 41.7768 50.0726 40.5607 47.7134C39.3446 45.3542 38.5184 42.9261 37.6954 40.8538C36.8724 38.7815 36.0527 37.0652 35.3031 35.656C34.5535 34.2468 33.874 33.1449 33.4653 32.2039C33.0566 31.263 32.9187 30.4832 32.5155 29.7327C32.1124 28.9822 31.4441 28.2609 30.8018 27.4491C30.1595 26.6373 29.5435 25.7348 29.0452 24.6851C28.5471 23.6353 28.1668 22.4382 27.842 21.4157C27.5172 20.3932 27.2479 19.5453 27.4213 19.5726C27.5947 19.6 28.2109 20.5024 28.861 21.3392C29.5112 22.176 30.1954 22.947 30.8828 24.074C31.5702 25.2009 32.2609 26.6837 32.963 27.9432C33.6651 29.2028 34.3786 30.2391 35.142 31.2595C35.9055 32.28 36.7187 33.2844 36.856 32.9388C36.9933 32.5932 36.4546 30.8974 35.8887 29.3749C35.3228 27.8525 34.7295 26.5036 34.4625 25.4902C34.1955 24.4768 34.2548 23.799 34.5109 23.8275C34.7671 23.856 35.2201 24.5907 35.7274 25.5827C36.2346 26.5746 36.7962 27.8238 37.4777 29.3645C38.1593 30.9051 38.9608 32.7371 39.6594 34.2448C40.358 35.7526 40.9536 36.9361 41.5198 37.8545C42.0861 38.7728 42.623 39.4259 42.8413 40.3724C43.0596 41.3189 42.9592 42.5587 42.8046 43.5413C42.65 44.5239 42.4411 45.2491 42.5267 46.2103C42.6124 47.1715 42.9926 48.3685 43.578 49.6927C44.1633 51.0168 44.9537 52.4679 45.7556 53.6958C46.5574 54.9237 47.3707 55.9282 47.971 56.7808C48.5713 57.6334 48.9585 58.334 49.0064 57.8796C49.0542 57.4251 48.7625 55.8155 48.5806 54.562C48.3987 53.3085 48.3264 52.4111 48.2076 51.4947C48.0888 50.5783 47.9234 49.6429 47.6948 48.6123C47.4662 47.5817 47.1745 46.4559 46.9181 45.2859C46.6617 44.116 46.4407 42.9019 46.1531 41.8407C45.8654 40.7794 45.5109 39.8711 45.1274 38.9227C44.7438 37.9742 44.331 36.9857 44.1199 36.1142C43.909 35.2426 43.8998 34.4882 43.8111 33.7425C43.7225 32.9967 43.5542 32.2598 43.0908 31.6825C42.6275 31.1051 41.8692 30.6874 41.3135 29.9748C40.7578 29.2621 40.4048 28.2546 39.9723 27.2559C39.5397 26.2571 39.0277 25.2672 38.634 24.3384C38.2401 23.4097 37.9646 22.5422 37.9527 21.9862C37.9407 21.4301 38.1924 21.1856 38.5202 20.818C38.848 20.4504 39.252 19.9598 39.6674 19.7126C40.0829 19.4653 40.5098 19.4615 40.7788 19.7383C41.0478 20.0151 41.1591 20.5725 41.1364 21.1231C41.1137 21.6737 40.957 22.2173 41.0051 22.6796C41.0531 23.1418 41.3058 23.5227 41.6402 23.7458C41.9745 23.9689 42.3904 24.0344 42.7234 24.3567C43.0563 24.6791 43.3061 25.2584 43.5315 24.4128C43.7569 23.5673 43.9579 21.2971 44.1687 19.7318C44.3795 18.1664 44.6002 17.306 44.657 16.4482C44.7138 15.5903 44.6068 14.7352 44.5896 13.8515C44.5724 12.9679 44.6449 12.0557 44.4828 11.2345C44.3208 10.4133 43.9241 9.68304 43.9407 9.21671C43.9572 8.75042 44.3869 8.54806 44.7909 8.05748C45.1949 7.56689 45.5732 6.7881 45.8822 5.99838C46.1912 5.20866 46.4308 4.40806 46.7411 3.88141C47.0513 3.35476 47.4321 3.10217 47.7882 3.18662C48.1444 3.27109 48.4759 3.69263 48.4796 4.48183C48.4833 5.27101 48.1592 6.4278 47.9718 7.39295C47.7844 8.35809 47.7337 9.13156 47.6768 9.98938C47.62 10.8472 47.557 11.7893 47.4852 12.6519C47.4134 13.5144 47.3328 14.2974 47.5204 14.3696C47.708 14.4417 48.1637 13.803 48.7125 13.2499C49.2614 12.6969 49.9033 12.2295 50.4179 11.9837C50.9326 11.7379 51.3201 11.7137 51.4653 12.3262C51.6104 12.9387 51.5133 14.188 51.173 15.0864C50.8327 15.9849 50.2492 16.5325 49.6942 17.1698C49.1392 17.8072 48.6128 18.5342 48.3379 19.0167C48.0631 19.4992 48.0398 19.7371 48.1736 20.1062C48.3073 20.4754 48.598 20.9758 48.9226 21.5313C49.2473 22.0868 49.6059 22.6974 49.8244 23.3855C50.043 24.0735 50.1214 24.8389 49.807 25.6633C49.4925 26.4876 48.7852 27.3709 48.188 28.1863C47.5908 29.0017 47.1037 29.7491 46.7444 30.5878C46.3851 31.4264 46.1535 32.3562 46.2603 33.5737C46.3672 34.7912 46.8123 36.2963 47.2962 37.8715C47.78 39.4467 48.3026 41.092 48.6236 42.2579C48.9445 43.4238 49.0638 44.1104 49.2672 43.7658C49.4706 43.4213 49.7581 42.0456 49.9573 40.5992C50.1565 39.1528 50.2674 37.6357 50.5515 36.1458C50.8357 34.656 51.2932 33.1934 51.7961 32.0293C52.299 30.8651 52.8473 29.9994 53.346 29.133C53.8447 28.2666 54.2937 27.3995 54.3316 26.4818C54.3694 25.5642 53.996 24.596 53.9958 23.5587C53.9956 22.5214 54.3687 21.415 54.968 20.4508C55.5674 19.4865 56.393 18.6645 57.0616 17.7111C57.7303 16.7578 58.2419 15.6731 58.6862 14.791C59.1305 13.9089 59.5074 13.2294 59.8066 13.1344C60.1057 13.0393 60.327 13.5288 60.2825 14.2181C60.238 14.9074 59.9276 15.7963 59.5356 16.8429C59.1435 17.8895 58.6698 19.0938 58.1439 20.1336C57.6179 21.1733 57.0397 22.0485 56.6137 23.0401C56.1877 24.0316 55.9139 25.1394 56.0538 25.4243C56.1937 25.7091 56.7473 25.1712 57.2185 24.8403C57.6898 24.5095 58.0786 24.386 58.2137 24.6559C58.3489 24.9258 58.2303 25.5892 57.8914 26.3884C57.5525 27.1876 56.9933 28.1226 56.6128 29.0503C56.2324 29.978 56.0308 30.8982 55.836 31.6846C55.6412 32.471 55.4532 33.1234 55.5632 33.4178C55.6732 33.7121 56.0811 33.6485 56.3107 33.9049C56.5404 34.1612 56.5918 34.7376 56.3121 35.2052C56.0325 35.6727 55.4219 36.0314 54.8583 36.2269C54.2948 36.4224 53.7782 36.4548 53.3525 36.7217C52.9268 36.9886 52.5922 37.4901 52.2798 38.1656C51.9675 38.8412 51.6775 39.6907 51.4284 40.4614C51.1792 41.2321 50.9709 41.924 50.9693 42.3855C50.9677 42.8471 51.1728 43.0783 51.4231 42.9329C51.6733 42.7875 51.9686 42.2657 52.2126 42.2046C52.4567 42.1436 52.6495 42.5433 52.6228 43.0294C52.596 43.5154 52.3497 44.0875 51.9483 44.7419C51.5469 45.3963 50.9906 46.1329 50.7759 47.2714C50.5612 48.4099 50.6883 49.9502 50.8936 51.2187C51.099 52.4872 51.3826 53.4838 51.7097 54.5655C52.0368 55.6471 52.4074 56.8137 52.893 57.9274C53.3784 59.041 53.9788 60.1016 54.2966 60.791C54.6144 61.4805 54.6495 61.7986 54.6953 61.3724C54.741 60.9462 54.7974 59.7758 54.8428 58.6746C54.8882 57.5735 54.9226 56.5417 54.8776 55.5186C54.8326 54.4956 54.708 53.4813 54.7458 52.5637C54.7836 51.6461 54.9839 50.825 54.9782 49.8224C54.9726 48.8198 54.7611 47.6356 54.7785 46.7573C54.796 45.8791 55.0423 45.3069 55.2503 45.3397C55.4583 45.3724 55.6279 46.0101 55.7838 46.9156C55.9397 47.8211 56.0818 48.9944 56.1587 50.2214C56.2356 51.4484 56.2472 52.7289 56.1902 53.949C56.1332 55.1692 56.0076 56.3288 56.0546 57.5653C56.1015 58.8017 56.3211 60.115 56.4673 61.3529C56.6136 62.5908 56.6864 63.7532 56.8232 64.9612C56.9599 66.1692 57.1605 67.4227 57.5215 68.5594C57.8826 69.6961 58.4041 70.716 58.7986 71.5951C59.1932 72.4742 59.4606 73.2125 59.6007 73.135C59.7408 73.0576 59.7534 72.1645 59.6193 71.1203C59.4853 70.0762 59.2044 68.881 58.9699 67.5724C58.7353 66.2637 58.547 64.8417 58.5143 63.6501C58.4816 62.4585 58.6044 61.4974 58.6757 60.3221C58.7469 59.1469 58.7666 57.7575 58.6047 56.574C58.4429 55.3905 58.0994 54.4129 58.0522 53.5387C58.0051 52.6645 58.2542 51.8938 58.4511 50.9586C58.648 50.0234 58.7927 48.9236 58.9998 47.9687C59.2069 47.0137 59.4765 46.2037 59.7487 45.5574C60.0209 44.9111 60.2957 44.4286 60.6081 43.7531C60.9204 43.0775 61.2702 42.209 61.7312 41.8979C62.1922 41.5868 62.7645 41.8331 63.1975 41.745C63.6306 41.6568 63.9244 41.2342 64.2318 40.9061C64.5392 40.5779 64.8602 40.3442 65.1669 40.0656C65.4736 39.7871 65.766 39.4637 66.0734 39.1355C66.3808 38.8073 66.7031 38.4744 66.8649 38.6206C67.0266 38.7668 67.0277 39.3922 66.8274 40.2133C66.6272 41.0343 66.2256 42.051 65.8867 42.8502C65.5478 43.6494 65.2716 44.2311 64.8104 44.9046C64.3492 45.578 63.703 46.343 63.201 47.0953C62.699 47.8475 62.3411 48.5868 61.8737 49.3445C61.4064 50.1022 60.8296 50.8782 60.6251 51.997C60.4207 53.1158 60.5885 54.5772 60.6417 55.7294C60.6948 56.8816 60.6332 57.7245 60.5137 58.7998C60.3943 59.8751 60.2169 61.1827 60.2211 62.2846C60.2253 63.3865 60.4112 64.2825 60.5597 65.0093C60.7082 65.736 60.8194 66.2934 60.9756 66.4743C61.1319 66.6552 61.3332 66.4595 61.6997 66.1619C62.0662 65.8644 62.598 65.465 62.9768 64.9989C63.3557 64.5328 63.5816 63.9999 63.9517 63.4543C64.3217 62.9086 64.8358 62.3501 65.1264 61.8133C65.4169 61.2764 65.4837 60.7612 65.6064 60.1624C65.729 59.5636 65.9074 58.8813 66.0512 58.1935C66.195 57.5056 66.3041 56.8123 66.2738 56.1468C66.2435 55.4813 66.0739 54.8437 65.8908 54.1115C65.7076 53.3793 65.5108 52.5527 65.7287 51.8907C65.9465 51.2287 66.579 50.7315 67.0775 50.2274C67.5759 49.7232 67.9405 49.2123 68.1556 48.7488C68.3706 48.2853 68.436 47.8693 68.6829 47.6098C68.9298 47.3502 69.3581 47.2471 69.6019 47.5484C69.8459 47.8496 69.9052 48.5552 69.7174 49.2077C69.5294 49.8601 69.0941 50.4595 68.807 51.1105C68.5198 51.7616 68.3808 52.4644 68.2805 53.2372C68.1802 54.01 68.1186 54.8529 68.1515 55.6822C68.1844 56.5115 68.3118 57.3272 68.3488 58.2211C68.3857 59.115 68.3322 60.087 68.2238 60.7306C68.1154 61.3743 67.9521 61.6896 68.2579 61.823C68.5638 61.9564 69.3387 61.9078 69.8726 61.3595C70.4064 60.8112 70.6992 59.7632 70.9783 58.983C71.2574 58.2028 71.5227 57.6904 71.8845 57.3779C72.2463 57.0654 72.7045 56.9528 72.894 57.2384C73.0835 57.524 73.0043 58.2078 72.8143 59.0091C72.6242 59.8104 72.3233 60.7293 71.9647 61.5183C71.6061 62.3073 71.1898 62.9664 70.6369 63.4549C70.084 63.9433 69.3946 64.2611 68.6447 64.6475C67.8947 65.0339 67.0843 65.4889 66.3452 65.806C65.6062 66.1231 64.9386 66.3023 64.3974 66.6717C63.8561 67.0413 63.4412 67.6011 62.9923 68.106C62.5434 68.6108 62.0606 69.0606 61.7354 69.592C61.4103 70.1234 61.2428 70.7365 61.1078 71.5038C60.9728 72.2712 60.8704 73.1928 60.8387 74.0262C60.8071 74.8596 60.8461 75.6045 61.0279 76.6491C61.2097 77.6937 61.5312 79.0258 61.7439 79.917C61.9565 80.8082 62.0523 81.2246 62.1499 81.649" stroke="#BD0300" stroke-width="0.771024" stroke-miterlimit="3.2" stroke-linejoin="round"/>
<path d="M97.3201 167.375C96.7333 167.165 95.5597 166.745 94.4631 165.632C93.3665 164.519 92.3469 162.713 91.2652 160.555C90.1834 158.397 89.0394 155.887 88.0823 153.888C87.1252 151.888 86.355 150.399 85.4673 148.774C84.5795 147.149 83.5742 145.388 82.6179 143.859C81.6616 142.33 80.7543 141.033 79.7787 139.287C78.8031 137.541 77.7591 135.346 76.9113 133.535C76.0636 131.724 75.4119 130.296 74.6713 128.822C73.9307 127.348 73.1012 125.829 72.1626 123.576C71.2241 121.323 70.1765 118.337 68.9946 115.864C67.8128 113.391 66.4968 111.431 65.2136 109.263C63.9304 107.094 62.6801 104.717 61.5086 102.043C60.3371 99.3686 59.2445 96.3968 58.6105 94.2451C57.9767 92.0935 57.8014 90.7621 57.5362 89.4593C57.2709 88.1566 56.9157 86.8824 57.0963 85.7353C57.2768 84.5881 57.993 83.5681 59.3032 82.7803C60.6134 81.9926 62.5175 81.4373 64.1321 81.296C65.7467 81.1546 67.0717 81.4273 68.2279 82.026C69.384 82.6248 70.3713 83.5495 71.1672 84.8076C71.9631 86.0656 72.5676 87.6569 72.8715 89.3932C73.1753 91.1295 73.1785 93.0109 73.796 95.2669C74.4135 97.5228 75.6454 100.153 76.7118 102.341C77.7782 104.529 78.6792 106.273 79.7832 108.969C80.8872 111.665 82.1942 115.312 83.1079 118.266C84.0216 121.221 84.5419 123.483 85.0787 125.64C85.6155 127.798 86.1686 129.851 86.5532 131.686C86.9378 133.52 87.1538 135.136 87.4373 136.73C87.7208 138.325 88.0717 139.897 88.5566 141.502C89.0415 143.106 89.6604 144.743 90.2363 146.244C90.8123 147.745 91.3453 149.111 91.9377 150.508C92.53 151.906 93.1817 153.333 93.8416 154.709C94.5014 156.084 95.1695 157.408 95.909 158.956C96.6486 160.505 97.4595 162.278 97.8044 163.754C98.1494 165.229 98.028 166.407 97.9674 166.996C97.9068 167.585 97.9069 167.585 97.3201 167.375Z" fill="#EC8E8D" stroke="#BD0300" stroke-width="1.13386" stroke-miterlimit="3.2" stroke-linecap="round" stroke-linejoin="round"/>
<path d="M57.8257 89.7622C58.5828 89.2895 59.3398 88.8169 60.0719 88.526C60.8041 88.235 61.5113 88.1257 62.3031 88.0191C63.0949 87.9124 63.9713 87.8083 64.8478 87.7041" fill="#BD0300"/>
<path d="M69.7829 91.3341C68.4602 91.6633 67.1376 91.9924 65.7427 92.4812C64.3478 92.9701 62.8807 93.6186 61.4136 94.2671" fill="#BD0300"/>
<path d="M75.5084 100.137C74.2063 100.377 72.9043 100.617 71.5524 101.022C70.2005 101.426 68.7987 101.996 67.397 102.565" fill="#BD0300"/>
<path d="M65.2808 109.274C66.4457 108.508 67.6106 107.743 68.6379 107.216C69.6653 106.689 70.5551 106.401 71.3934 106.183C72.2317 105.966 73.0184 105.818 73.8051 105.671" fill="#BD0300"/>
<path d="M80.5111 111.455C79.2124 111.884 77.9136 112.313 76.3452 112.891C74.7768 113.469 72.9387 114.196 71.1006 114.923" fill="#BD0300"/>
<path d="M75.7139 130.157C76.6163 129.724 77.5187 129.291 78.3654 128.925C79.2121 128.559 80.0031 128.261 80.7941 127.962" fill="#BD0300"/>
<path d="M87.7612 136.746C86.6319 136.868 85.5026 136.991 84.6442 137.382C83.7859 137.772 83.1984 138.43 82.611 139.088" fill="#BD0300"/>
<path d="M83.8309 145.438C84.4219 144.985 85.013 144.533 85.4749 144.307C85.9368 144.081 86.2696 144.081 86.6024 144.082" fill="#BD0300"/>
<path d="M73.1575 122.418C73.977 121.427 74.7963 120.437 75.9659 119.766C77.1354 119.096 78.655 118.747 80.1746 118.397" fill="#BD0300"/>
</g>
<defs>
<clipPath id="clip0_136_660">
<rect width="61.4226" height="166.634" fill="white" transform="translate(0 32.5288) rotate(-31.9776)"/>
</clipPath>
</defs>
</svg>
