<svg width="88" height="99" viewBox="0 0 88 99" fill="none" xmlns="http://www.w3.org/2000/svg">
<path d="M86.3218 82.6002C86.4251 82.0497 86.6314 80.9487 86.4936 79.8821C86.3561 78.8154 85.8744 77.7833 85.2894 76.8544C84.7045 75.9254 84.0165 75.0997 83.0875 74.1019C82.1585 73.1041 80.9888 71.9343 80.1286 70.6956C79.2684 69.457 78.7179 68.1496 78.4771 66.7389C78.2363 65.3282 78.3052 63.8144 78.0298 62.3349C77.7545 60.8554 77.1352 59.4104 76.3783 58.1373C75.6213 56.8643 74.7268 55.7634 73.7634 54.4903C72.8 53.2173 71.7679 51.7722 70.7357 50.3271C69.7035 48.8821 68.6712 47.4371 67.9143 45.9231C67.1573 44.4092 66.6757 42.8266 66.4348 41.2783C66.194 39.73 66.1941 38.2162 65.8844 36.4958C65.5747 34.7755 64.9553 32.8488 64.336 31.7134C63.7167 30.578 63.0975 30.2339 62.2373 29.9243C61.3772 29.6146 60.2762 29.3394 59.0031 29.305C57.7301 29.2705 56.285 29.477 54.9775 29.9243C53.6701 30.3716 52.5003 31.0597 51.5025 31.7822C50.5047 32.5047 49.679 33.2617 49.1974 34.1562C48.7157 35.0508 48.578 36.083 48.578 37.1496C48.578 38.2162 48.7155 39.3172 49.0253 40.5214C49.335 41.7256 49.8166 43.033 50.8489 44.4093C51.8811 45.7856 53.4636 47.2306 54.9775 48.9509C56.4914 50.6713 57.9366 52.6668 58.7623 54.2839C59.5881 55.901 59.7945 57.1396 60.0698 58.3094C60.345 59.4792 60.689 60.5802 61.4115 61.5092C62.1341 62.4382 63.2351 63.1951 64.4737 63.9864C65.7123 64.7778 67.0886 65.6035 68.1208 66.7389C69.153 67.8744 69.8411 69.3194 70.6324 70.4548C71.4238 71.5902 72.3183 72.416 73.2128 73.1385C74.1074 73.861 75.0021 74.4803 76.1375 75.2373C77.2729 75.9942 78.6491 76.8888 79.9566 77.7833C81.264 78.6779 82.5025 79.5724 83.5347 80.467C84.5669 81.3616 85.3927 82.2561 85.8055 82.7034C86.2184 83.1507 86.2185 83.1508 86.3218 82.6002Z" fill="#BD0300" stroke="#BD0300" stroke-width="1.47446" stroke-miterlimit="3.2" stroke-linecap="round" stroke-linejoin="round"/>
<path d="M62.7426 28.9078C62.3614 28.3486 61.5987 27.2303 60.7345 26.3661C59.8703 25.5019 58.9046 24.8919 58.015 24.2057C57.1254 23.5194 56.3121 22.7569 55.8292 21.7148C55.3462 20.6727 55.1937 19.351 55.0921 17.826C54.9903 16.3009 54.9396 14.5726 54.914 13.3526C54.8887 12.1326 54.8887 11.4209 54.6599 10.6838C54.4312 9.94673 53.9735 9.18423 53.211 8.11672C52.4485 7.04921 51.381 5.67672 50.9744 4.50753C50.5677 3.33834 50.822 2.37252 51.1269 1.78792C51.4319 1.20332 51.7877 0.99999 51.4572 1C51.1268 1.00001 50.1101 1.20332 49.2205 1.66085C48.3309 2.11837 47.5685 2.83002 47.1364 3.49087C46.7043 4.15172 46.6026 4.76169 46.8568 5.44797C47.111 6.13424 47.721 6.89672 48.4327 7.68466C49.1444 8.4726 49.9577 9.28593 50.4406 10.5568C50.9236 11.8276 51.076 13.556 51.1523 14.9285C51.2285 16.301 51.2285 17.3177 51.3557 18.4614C51.4828 19.6052 51.7369 20.876 51.9657 21.8419C52.1944 22.8077 52.3977 23.4686 52.296 24.3327C52.1942 25.1969 51.7878 26.2644 51.1778 27.3065C50.5677 28.3486 49.7544 29.3653 49.2969 30.4074C48.8394 31.4495 48.7378 32.517 49.2207 32.7966C49.7036 33.0762 50.7711 32.5678 52.0419 32.0086C53.3128 31.4495 54.7869 30.8395 56.134 30.4074C57.4811 29.9753 58.7011 29.7211 59.8449 29.594C60.9886 29.467 62.0561 29.467 62.5899 29.467C63.1237 29.467 63.1239 29.467 62.7426 28.9078Z" stroke="#BD0300" stroke-width="0.884677" stroke-miterlimit="3.2" stroke-linecap="round" stroke-linejoin="round"/>
<path d="M1.21778 97.4488C1.11446 96.8983 0.908175 95.7973 1.04591 94.7307C1.18342 93.6641 1.66518 92.632 2.25011 91.703C2.83501 90.774 3.52304 89.9483 4.45201 88.9505C5.381 87.9527 6.55079 86.7829 7.41096 85.5443C8.27115 84.3056 8.82161 82.9982 9.06246 81.5875C9.30329 80.1769 9.23439 78.663 9.50976 77.1835C9.78503 75.7041 10.4043 74.259 11.1613 72.986C11.9182 71.7129 12.8128 70.612 13.7762 69.3389C14.7395 68.0659 15.7717 66.6208 16.8039 65.1758C17.8361 63.7307 18.8683 62.2857 19.6253 60.7718C20.3822 59.2579 20.8639 57.6752 21.1047 56.1269C21.3456 54.5786 21.3455 53.0648 21.6551 51.3445C21.9648 49.6241 22.5843 47.6974 23.2036 46.562C23.8229 45.4266 24.442 45.0825 25.3022 44.7729C26.1624 44.4632 27.2634 44.188 28.5364 44.1536C29.8095 44.1192 31.2546 44.3256 32.562 44.7729C33.8695 45.2202 35.0393 45.9083 36.037 46.6308C37.0348 47.3534 37.8605 48.1103 38.3422 49.0049C38.8239 49.8994 38.9615 50.9316 38.9615 51.9982C38.9615 53.0648 38.824 54.1658 38.5142 55.37C38.2046 56.5743 37.7229 57.8817 36.6907 59.2579C35.6585 60.6342 34.0759 62.0792 32.562 63.7996C31.0481 65.5199 29.603 67.5154 28.7772 69.1325C27.9515 70.7496 27.745 71.9882 27.4698 73.158C27.1946 74.3279 26.8506 75.4289 26.128 76.3578C25.4055 77.2868 24.3045 78.0437 23.0658 78.8351C21.8272 79.6264 20.451 80.4522 19.4188 81.5876C18.3866 82.723 17.6985 84.168 16.9071 85.3034C16.1158 86.4389 15.2213 87.2646 14.3267 87.9871C13.4321 88.7097 12.5375 89.329 11.4021 90.0859C10.2667 90.8428 8.89041 91.7374 7.58298 92.632C6.27553 93.5265 5.03705 94.4211 4.00486 95.3156C2.97264 96.2102 2.14687 97.1048 1.73402 97.5521C1.32115 97.9993 1.321 97.9994 1.21778 97.4488Z" fill="#BD0300" stroke="#BD0300" stroke-width="1.47446" stroke-miterlimit="3.2" stroke-linecap="round" stroke-linejoin="round"/>
<path d="M24.7969 43.7559C25.1782 43.1968 25.9408 42.0784 26.805 41.2142C27.6692 40.35 28.6349 39.7401 29.5246 39.0538C30.4142 38.3675 31.2275 37.605 31.7104 36.5629C32.1933 35.5208 32.3458 34.1992 32.4475 32.6741C32.5493 31.1491 32.6 29.4208 32.6255 28.2008C32.6509 26.9807 32.6508 26.2691 32.8797 25.532C33.1083 24.7949 33.566 24.0324 34.3285 22.9649C35.091 21.8974 36.1585 20.5249 36.5652 19.3557C36.9719 18.1865 36.7175 17.2207 36.4126 16.6361C36.1076 16.0515 35.7519 15.8481 36.0823 15.8481C36.4128 15.8482 37.4294 16.0515 38.319 16.509C39.2086 16.9665 39.971 17.6782 40.4031 18.339C40.8352 18.9999 40.9369 19.6098 40.6827 20.2961C40.4286 20.9824 39.8185 21.7449 39.1068 22.5328C38.3951 23.3207 37.5818 24.1341 37.0989 25.4049C36.616 26.6758 36.4635 28.4041 36.3873 29.7766C36.3111 31.1492 36.311 32.1658 36.1839 33.3096C36.0568 34.4534 35.8026 35.7242 35.5738 36.69C35.3452 37.6559 35.1419 38.3167 35.2435 39.1809C35.3453 40.0451 35.7518 41.1126 36.3618 42.1547C36.9718 43.1968 37.7851 44.2134 38.2427 45.2555C38.7002 46.2977 38.8018 47.3651 38.3189 47.6447C37.836 47.9243 36.7685 47.416 35.4976 46.8568C34.2268 46.2976 32.7527 45.6876 31.4056 45.2555C30.0585 44.8234 28.8384 44.5693 27.6947 44.4422C26.5509 44.3151 25.4834 44.3151 24.9497 44.3151C24.4159 44.3151 24.4157 44.3151 24.7969 43.7559Z" stroke="#BD0300" stroke-width="0.884677" stroke-miterlimit="3.2" stroke-linecap="round" stroke-linejoin="round"/>
</svg>
