<svg width="100" height="77" viewBox="0 0 100 77" fill="none" xmlns="http://www.w3.org/2000/svg">
<path d="M42.9065 61.12C43.3077 61.1493 42.9657 60.9481 42.3585 60.8334C41.7515 60.7187 40.8795 60.6905 40.0724 60.7507C39.2652 60.8108 38.5228 60.9593 37.6815 61.2809C36.8403 61.6025 35.9002 62.0974 34.9352 62.5428C33.9702 62.9881 32.9806 63.384 32.0156 63.9531C31.0506 64.5222 30.1105 65.2644 29.294 65.883C28.4775 66.5015 27.7846 66.9964 27.1413 67.6149C26.498 68.2335 25.9042 68.9758 25.4093 69.817C24.9145 70.6583 24.5187 71.5984 24.5186 72.3655C24.5186 73.1325 24.9145 73.7263 25.3846 74.2707C25.8547 74.815 26.3991 75.3098 27.1908 75.6315C27.9826 75.9531 29.0217 76.1016 30.1598 76.0768C31.298 76.0521 32.5352 75.8542 34.1682 75.1861C35.8012 74.5181 37.8299 73.3799 39.2403 72.3655C40.6506 71.351 41.4424 70.4603 42.1847 69.4459C42.927 68.4314 43.6197 67.2933 44.0156 66.2541C44.4115 65.2149 44.5105 64.2747 44.3125 63.3098C44.1145 62.3448 43.6197 61.3551 42.9764 60.6129C42.3331 59.8706 41.5414 59.3758 40.428 58.584C39.3146 57.7922 37.8795 56.7036 36.9145 55.5654C35.9496 54.4273 35.4548 53.2397 35.7022 52.8438C35.9496 52.4479 36.9393 52.8438 38.3002 52.8438C39.661 52.8438 41.3929 52.4479 42.8032 51.5077C44.2135 50.5675 45.3021 49.083 45.9207 47.6231C46.5393 46.1633 46.6878 44.7283 46.4651 43.1448C46.2424 41.5613 45.6486 39.8293 44.6094 38.2458C43.5703 36.6623 42.0858 35.2272 40.4033 34.0643C38.7208 32.9014 36.8403 32.0107 34.564 31.3674C32.2877 30.7241 29.6156 30.3282 26.894 30.4272C24.1723 30.5262 21.4012 31.12 18.1847 32.555C14.9681 33.9901 11.3063 36.2663 8.8073 38.1715C6.30829 40.0767 4.97219 41.6107 3.83402 43.3674C2.69587 45.1242 1.7557 47.1035 1.31031 49.3056C0.864945 51.5077 0.914409 53.9324 1.35986 55.9365C1.80521 57.9407 2.64648 59.5242 4.13104 60.9345C5.61558 62.3448 7.7433 63.5819 9.64846 64.0026C11.5536 64.4232 13.2362 64.0273 14.9033 63.2089C16.5703 62.3906 18.2218 61.1497 19.1545 60.7264C20.0872 60.303 20.301 60.6972 20.5162 61.2303C20.7314 61.7633 20.9481 62.4352 21.2299 63.1938C21.5116 63.9524 21.8584 64.7977 22.1727 65.6972C22.487 66.5967 22.7688 67.5503 22.9748 68.4173C23.1807 69.2843 23.3107 70.0645 23.5166 70.834C23.7225 71.6034 24.0043 72.362 24.2102 72.4054C24.4161 72.4487 24.5461 71.7768 24.882 71.0507C25.218 70.3246 25.7598 69.5444 26.4209 68.7641C27.082 67.9838 27.8623 67.2036 29.3145 66.0873C30.7667 64.9711 32.8907 63.5189 34.8198 62.5436C36.7488 61.5682 38.4827 61.0697 39.9219 60.9503C41.3611 60.8309 42.5053 61.0907 42.9065 61.12Z" stroke="#BD0300" stroke-width="1.23944" stroke-miterlimit="3.2" stroke-linejoin="round"/>
<path d="M17.2962 60.9491C16.8452 60.7992 15.9432 60.4994 15.2198 60.168C14.4965 59.8365 13.9518 59.4734 13.6568 59.0535C13.3617 58.6337 13.3163 58.157 13.4411 57.7258C13.566 57.2946 13.861 56.9088 14.3036 56.5911C14.7462 56.2733 15.3363 56.0237 15.8583 56.035C16.3803 56.0463 16.8342 56.3187 17.254 56.6592C17.6738 56.9996 18.0597 57.4081 18.7439 58.1562C19.4281 58.9043 20.4104 59.9915 20.5989 60.3279C20.7875 60.6643 20.1819 60.2495 19.5742 60.2528C18.9665 60.256 18.3569 60.6775 18.052 60.8882C17.7471 61.099 17.7472 61.099 17.2962 60.9491Z" fill="#BD0300"/>
<path d="M34.892 52.5296C34.7466 52.1986 34.4556 51.5365 34.1226 50.931C33.7894 50.3254 33.4142 49.7764 33.1999 49.3015C32.9855 48.8265 32.9321 48.4255 33.0257 48.0714C33.1193 47.7172 33.3598 47.4098 33.7341 47.1024C34.1083 46.795 34.616 46.4876 35.0838 46.3673C35.5516 46.2471 35.9793 46.3139 36.3335 46.4943C36.6877 46.6747 36.9683 46.9688 37.1421 47.3363C37.3157 47.7039 37.3826 48.1449 37.3292 48.5258C37.2756 48.9067 37.102 49.2274 36.8687 49.5554C36.6353 49.8833 36.3422 50.2185 36.189 50.5197C36.0358 50.821 36.0225 51.0882 36.0426 51.3489C36.0628 51.6095 36.1161 51.8635 36.1629 52.0706C36.2096 52.2777 36.2497 52.4381 36.0868 52.6186C35.9238 52.799 35.5578 52.9994 35.3491 53.0431C35.1404 53.0868 35.0891 52.9737 35.0634 52.9172C35.0376 52.8607 35.0375 52.8607 34.892 52.5296Z" fill="#BD0300"/>
<path d="M3.31006 55.4878C3.8016 56.4381 4.29314 57.3884 5.11237 58.3551C5.93162 59.3218 7.07857 60.3049 8.06166 60.8947C9.04472 61.4846 9.86391 61.6812 10.6831 61.8778" fill="#BD0300"/>
<path d="M21.6255 33.985C22.6666 33.7024 23.7077 33.4199 24.8083 33.2786C25.9089 33.1373 27.0689 33.1373 28.1174 33.1968C29.166 33.2563 30.103 33.3752 31.0251 33.5537C31.9472 33.7322 32.8544 33.9702 33.4567 34.2081C34.0591 34.4461 34.3565 34.684 34.654 34.922" fill="#BD0300"/>
<path d="M42.7822 42.0273C43.0333 42.8433 43.2844 43.6593 43.3367 44.4858C43.3891 45.3122 43.2425 46.1491 43.0961 46.986" fill="#BD0300"/>
<path d="M64.1796 28.5249C63.6259 28.4075 62.5183 28.1725 61.3939 27.6691C60.2696 27.1656 59.1285 26.3937 58.1217 25.1687C57.1148 23.9437 56.2422 22.2656 55.6884 20.7217C55.1346 19.1779 54.8997 17.7683 55.2688 16.0062C55.638 14.2442 56.6113 12.1298 58.021 10.2671C59.4306 8.40439 61.2765 6.79345 62.9043 5.56843C64.532 4.34341 65.9416 3.50437 67.4184 2.84991C68.8951 2.19544 70.439 1.72558 72.0836 1.40673C73.7281 1.08789 75.4732 0.920073 77.5206 1.03754C79.5679 1.15501 81.9172 1.55776 83.9309 2.2458C85.9446 2.93383 87.6228 3.90711 89.4016 5.06502C91.1804 6.22293 93.0598 7.56539 94.4527 9.09248C95.8455 10.6196 96.7517 12.3312 97.3558 13.9925C97.9599 15.6539 98.262 17.2648 98.4298 18.9933C98.5976 20.7218 98.6313 22.5677 98.4969 24.5311C98.3626 26.4945 98.0606 28.5753 97.4229 31.0421C96.7852 33.509 95.8119 36.3617 94.9393 38.5097C94.0667 40.6577 93.2948 42.1008 92.5061 43.2252C91.7173 44.3495 90.9118 45.155 89.9889 45.6248C89.0659 46.0947 88.0255 46.229 86.918 46.0444C85.8104 45.8598 84.6357 45.3564 83.461 44.7354C82.2863 44.1145 81.1117 43.3762 80.088 42.621C79.0644 41.8659 78.1918 41.094 77.6213 40.3892C77.0507 39.6843 76.7821 39.0467 76.564 38.8621C76.3458 38.6775 76.1781 38.946 75.7418 39.4662C75.3054 39.9864 74.6007 40.7583 74.0469 41.5303C73.4931 42.3022 73.0903 43.0741 72.7547 43.9635C72.4191 44.8529 72.1506 45.8598 71.8989 46.8499C71.6472 47.84 71.4123 48.8132 71.0598 49.7866C70.7074 50.7599 70.2375 51.7332 69.7005 52.7232C69.1635 53.7133 68.5594 54.7202 67.9385 55.3746C67.3176 56.0291 66.6799 56.3312 65.7905 56.2808C64.9011 56.2305 63.76 55.8277 62.5182 55.1901C61.2764 54.5524 59.934 53.6798 58.6754 52.6729C57.4168 51.666 56.2421 50.5249 55.1849 49.602C54.1277 48.679 53.188 47.9742 52.3489 47.2862C51.5098 46.5981 50.7715 45.9269 50.4527 44.8697C50.1338 43.8125 50.2344 42.3693 50.5197 41.1443C50.805 39.9193 51.2748 38.9124 51.8286 38.1237C52.3824 37.335 53.0202 36.7644 54.0942 36.0596C55.1682 35.3548 56.6784 34.5158 57.937 33.8613C59.1956 33.2068 60.2024 32.737 61.0918 32.1664C61.9812 31.5959 62.7531 30.9246 63.3405 30.3205C63.9278 29.7164 64.3305 29.1794 64.5319 28.9109C64.7333 28.6424 64.7333 28.6424 64.1796 28.5249Z" stroke="#BD0300" stroke-width="1.23945" stroke-miterlimit="3.2" stroke-linecap="round" stroke-linejoin="round"/>
<path d="M65.2416 28.0667C65.5554 27.7287 66.183 27.0529 66.5209 26.4735C66.8588 25.8942 66.9071 25.4115 66.8346 24.9287C66.7621 24.4459 66.5691 23.9631 66.1346 23.7218C65.7001 23.4804 65.0243 23.4804 64.5174 23.5769C64.0105 23.6735 63.6726 23.8666 63.4312 24.2528C63.1898 24.639 63.0449 25.2184 62.9001 25.6891C62.7553 26.1598 62.6105 26.5218 62.5863 26.8477C62.5622 27.1735 62.6586 27.4632 62.7069 27.6563C62.7553 27.8495 62.7553 27.946 63.1173 28.0546C63.4794 28.1632 64.2036 28.2839 64.5657 28.3443C64.9278 28.4046 64.9278 28.4046 65.2416 28.0667Z" fill="#BD0300" stroke="#BD0300" stroke-width="1.23944" stroke-miterlimit="3.2" stroke-linecap="round" stroke-linejoin="round"/>
<path d="M76.4266 38.1818C76.6056 38.0363 76.964 37.7453 77.4005 37.3871C77.8371 37.0289 78.3519 36.6035 78.9116 36.3125C79.4712 36.0215 80.0757 35.8648 80.5234 35.9319C80.9711 35.9991 81.2622 36.2901 81.3853 36.7714C81.5084 37.2528 81.4636 37.9243 81.2845 38.4281C81.1055 38.9318 80.7921 39.2676 80.4899 39.5474C80.1876 39.8272 79.8967 40.0511 79.4937 40.219C79.0907 40.3869 78.5758 40.4988 78.1616 40.4093C77.7475 40.3197 77.4341 40.0287 77.1207 39.7265C76.8073 39.4243 76.4938 39.1108 76.3483 38.8758C76.2028 38.6407 76.2252 38.484 76.2363 38.4057C76.2483 38.3273 76.2483 38.3273 76.4266 38.1818Z" fill="#BD0300"/>
<path d="M70.9259 4.24023C70.066 4.50709 69.2061 4.77393 68.4203 5.07045C67.6346 5.36696 66.9231 5.6931 66.2707 6.04891C65.6184 6.40472 65.0254 6.79016 64.5954 7.13115C64.1655 7.47213 63.8987 7.76864 63.6318 8.06513" fill="#BD0300"/>
<path d="M95.465 21.2666C95.3572 23.8248 95.2495 26.3831 94.9128 28.6855C94.5762 30.988 94.0108 33.0345 93.4453 35.0811" fill="#BD0300"/>
<path d="M51.0513 40.4171C52.0132 40.2806 52.9751 40.1441 53.8559 40.3292C54.7367 40.5142 55.5363 41.0207 56.8425 41.9137C58.1487 42.8067 59.9613 44.0862 61.6674 45.4324C63.3734 46.7786 64.9729 48.1914 66.0925 49.3109C67.2121 50.4305 67.8518 51.2569 68.2649 51.8824C68.6781 52.5079 68.8646 52.9327 69.0512 53.3574" stroke="#BD0300" stroke-width="1.23944" stroke-miterlimit="3.2" stroke-linecap="round" stroke-linejoin="round"/>
</svg>
