<svg width="115" height="130" viewBox="0 0 115 130" fill="none" xmlns="http://www.w3.org/2000/svg">
<path d="M23.658 123.709C22.3562 123.422 19.7524 122.847 17.2636 121.657C14.7747 120.467 12.4008 118.661 10.2948 116.568C8.18883 114.475 6.35094 112.095 4.58958 108.729C2.82822 105.364 1.14339 101.014 0.798772 95.9249C0.454156 90.8359 1.44967 85.0083 2.67498 80.5349C3.90029 76.0615 5.35542 72.9425 7.07846 69.8234C8.80154 66.7044 10.7926 63.5854 12.4008 61.3281C14.009 59.0709 15.2342 57.6756 15.9234 56.1571C16.6126 54.6386 16.7659 52.997 16.5361 50.945C16.3064 48.893 15.6937 46.4306 15.081 44.0502C14.4684 41.6699 13.8557 39.3717 13.3962 37.3607C12.9367 35.3497 12.6305 33.6261 12.171 32.1896C11.7115 30.7532 11.0989 29.6041 10.8309 27.7983C10.5629 25.9926 10.6393 23.5302 10.9839 22.1759C11.3284 20.8215 11.9412 20.5753 12.439 20.8626C12.9367 21.1498 13.3196 21.9707 13.6259 23.2429C13.9322 24.5152 14.1619 26.2388 14.5831 28.1267C15.0043 30.0146 15.617 32.0665 16.4977 34.4879C17.3784 36.9093 18.5272 39.7 19.1398 41.3826C19.7524 43.0653 19.829 43.6398 20.9394 45.815C22.0498 47.9902 24.194 51.7658 26.4149 54.3514C28.6357 56.9369 30.933 58.3323 33.1155 59.5224C35.298 60.7126 37.3658 61.6975 39.0889 62.8056C40.8119 63.9137 42.1903 65.1449 43.9516 67.0738C45.713 69.0027 47.8571 71.6292 49.5419 74.6662C51.2267 77.7033 52.4519 81.1506 53.2177 84.2696C53.9836 87.3887 54.29 90.1794 54.3283 93.4216C54.3666 96.6638 54.1368 100.357 53.5625 103.476C52.9881 106.595 52.0691 109.14 51.2267 111.151C50.3844 113.162 49.6186 114.639 48.087 116.322C46.5553 118.005 44.258 119.892 42.0754 121.206C39.8928 122.519 37.8252 123.258 35.681 123.75C33.5367 124.243 31.3159 124.489 29.5162 124.489C27.7166 124.489 26.3382 124.243 25.649 124.12C24.9598 123.996 24.9599 123.997 23.658 123.709Z" stroke="#BD0300" stroke-width="1.46051" stroke-miterlimit="3.2" stroke-linecap="round" stroke-linejoin="round"/>
<path d="M23.8127 124.486C22.6999 125.38 21.5871 126.275 21.3646 126.782C21.1422 127.288 21.8097 127.408 22.5052 127.438C23.2007 127.467 23.9238 127.408 24.7306 127.259C25.5373 127.11 26.4275 126.871 27.2621 126.692C28.0967 126.513 28.8757 126.394 29.3764 126.663C29.8771 126.931 30.0997 127.587 30.6004 127.736C31.1012 127.886 31.88 127.528 32.6311 127.289C33.3822 127.05 34.1057 126.931 34.5229 127.349C34.9402 127.766 35.0515 128.72 35.4688 128.899C35.8861 129.078 36.6093 128.482 37.1935 127.856C37.7777 127.229 38.2228 126.574 38.807 126.246C39.3912 125.918 40.1145 125.918 40.3926 125.768C40.6706 125.619 40.5039 125.321 40.8657 125.023C41.2273 124.725 42.1174 124.427 43.0632 124.248C44.0091 124.069 45.0105 124.009 45.3164 123.86C45.6224 123.711 45.233 123.473 45.4837 123.174C45.734 122.876 46.6241 122.519 46.5963 122.22C46.5689 121.922 45.6226 121.684 46.1234 121.266C46.6242 120.849 48.5714 120.252 49.2947 119.805C50.018 119.358 49.5175 119.06 49.6565 118.374C49.7956 117.688 50.5744 116.615 50.4075 116.138C50.2407 115.661 49.128 115.78 48.0152 115.899" stroke="#BD0300" stroke-width="0.876305" stroke-miterlimit="3.2" stroke-linecap="round" stroke-linejoin="round"/>
<path d="M16.8023 49.1676C17.303 47.8557 17.8037 46.5438 18.2766 45.6194C18.7496 44.6951 19.1947 44.1584 19.1391 44.2777C19.0835 44.3969 18.5271 45.1722 18.0263 44.7547C17.5256 44.3373 17.0805 42.7272 16.6076 41.3258C16.1346 39.9244 15.6339 38.7318 15.3001 37.7478C14.9662 36.7638 14.7992 35.9886 14.6323 35.2134" stroke="#BD0300" stroke-width="0.584203" stroke-miterlimit="3.2" stroke-linecap="round" stroke-linejoin="round"/>
<path d="M16.6353 62.4067C14.9104 64.2554 13.1858 66.104 11.7671 68.3105C10.3483 70.517 9.23555 73.0812 8.03932 76.0331C6.84311 78.985 5.56336 82.3244 4.84004 86.3498C4.11675 90.3751 3.94993 95.086 4.67334 99.3797C5.39666 103.673 7.01004 107.549 8.90177 110.442C10.7935 113.334 12.9634 115.242 15.1332 117.151" stroke="#BD0300" stroke-width="0.584203" stroke-miterlimit="3.2" stroke-linecap="round" stroke-linejoin="round"/>
<path d="M16.9691 77.792C16.3014 80.7141 15.6336 83.6361 15.3554 86.916C15.0771 90.1959 15.1886 93.8335 15.6614 97.4414C16.1343 101.049 16.9689 104.627 17.9982 107.579C19.0275 110.531 20.2516 112.857 21.4757 115.182" stroke="#BD0300" stroke-width="0.876305" stroke-miterlimit="3.2" stroke-linecap="round" stroke-linejoin="round"/>
<path d="M24.814 119.118C25.7598 120.311 26.7057 121.504 27.5402 122.279C28.3747 123.054 29.0981 123.412 29.8214 123.77" stroke="#BD0300" stroke-width="0.876305" stroke-miterlimit="3.2" stroke-linecap="round" stroke-linejoin="round"/>
<path d="M37.5452 123.179C38.0066 122.1 38.4681 121.021 38.9296 120.01C39.3911 118.998 39.8525 118.054 40.2301 116.974C40.6076 115.895 40.9012 114.681 41.1949 113.467" stroke="#BD0300" stroke-width="0.876305" stroke-miterlimit="3.2" stroke-linecap="round" stroke-linejoin="round"/>
<path d="M41.95 106.857C42.0757 105.418 42.2019 103.979 42.2439 102.9C42.2858 101.821 42.2439 101.102 42.202 100.382" stroke="#BD0300" stroke-width="0.876305" stroke-miterlimit="3.2" stroke-linecap="round" stroke-linejoin="round"/>
<path d="M41.5726 94.0428C41.1951 91.3899 40.8176 88.737 40.0205 85.9043C39.2235 83.0715 38.0068 80.059 36.8951 77.586C35.7834 75.1129 34.7766 73.1795 33.7698 71.2461" stroke="#BD0300" stroke-width="0.876305" stroke-miterlimit="3.2" stroke-linecap="round" stroke-linejoin="round"/>
<path d="M39.6848 68.1436C40.8175 69.5824 41.9502 71.0213 43.2716 72.9772C44.5931 74.9332 46.1033 77.4062 47.2989 79.7218C48.4945 82.0374 49.3755 84.1957 49.9628 86.6688C50.5501 89.1418 50.8438 91.9295 50.8438 94.2901C50.8438 96.6507 50.55 98.5841 50.1935 100.428C49.8369 102.271 49.4173 104.025 48.9978 105.778" stroke="#BD0300" stroke-width="0.876305" stroke-miterlimit="3.2" stroke-linecap="round" stroke-linejoin="round"/>
<path d="M47.2363 112.658C46.5651 113.872 45.8937 115.086 45.1806 116.255C44.4674 117.424 43.7123 118.548 42.9991 119.425C42.2859 120.302 41.6148 120.931 40.9436 121.561" stroke="#BD0300" stroke-width="0.876305" stroke-miterlimit="3.2" stroke-linecap="round" stroke-linejoin="round"/>
<path d="M63.8452 85.6397C64.3195 85.6034 65.2681 85.5306 66.1829 85.4943C67.0977 85.458 67.9786 85.458 68.8256 85.6031C69.6726 85.7483 70.4856 86.0389 71.4004 86.402C72.3152 86.7651 73.3317 87.2009 74.1295 87.6101C74.9273 88.0194 75.5066 88.4021 75.9553 88.8833C76.404 89.3645 76.7222 89.9442 77.2313 90.3193C77.7403 90.6945 78.4402 90.865 78.9016 91.4959C79.3629 92.1268 79.5857 93.218 79.538 94.0023C79.4902 94.7866 79.172 95.264 78.7107 95.247C78.2493 95.2291 77.6448 94.7184 77.1039 94.2581C76.563 93.7977 76.0858 93.3884 75.5131 93.2862C74.9404 93.1838 74.2723 93.3885 73.8428 93.0646C73.4132 92.7406 73.2225 91.8881 72.8248 91.2742C72.427 90.6604 71.8225 90.2853 71.1702 90.0636C70.518 89.842 69.8181 89.7736 69.3727 89.9444C68.9273 90.1148 68.7363 90.5241 68.3545 91.1208C67.9727 91.7176 67.4 92.502 66.9387 92.7236C66.4773 92.9452 66.1273 92.6043 65.9523 91.7517C65.7775 90.8991 65.7775 89.5351 65.3763 88.4372C64.9752 87.3393 64.1731 86.5076 63.772 86.0917C63.3709 85.6759 63.3708 85.6761 63.8452 85.6397Z" stroke="#BD0300" stroke-width="0.800462" stroke-miterlimit="3.2" stroke-linecap="round" stroke-linejoin="round"/>
<path d="M63.5094 84.4301C62.4553 83.7078 61.8678 82.4113 61.1594 80.6889C60.4509 78.9665 59.6214 76.8181 59.1376 74.7438C58.6538 72.6695 58.5156 70.6693 58.5329 68.3356C58.5496 66.002 58.723 63.3351 59.4142 60.3347C60.1054 57.3344 61.315 54.0007 63.112 50.8151C64.9091 47.6296 67.2936 44.5923 69.6264 42.2957C71.9591 39.9991 74.2399 38.4434 76.158 37.2581C78.0761 36.0728 79.6313 35.2579 81.6012 34.2763C83.5711 33.2947 85.9555 32.1464 87.8216 31.1278C89.6878 30.1091 91.0357 29.2201 92.3662 28.0718C93.6967 26.9236 95.0099 25.516 96.5133 23.6454C98.0166 21.7748 99.7099 19.4413 100.626 17.9041C101.542 16.3669 101.68 15.6261 102.285 14.3111C102.889 12.9961 103.961 11.107 104.911 9.40311C105.862 7.69919 106.691 6.18056 107.296 4.97672C107.901 3.77287 108.281 2.88387 108.885 2.18008C109.49 1.47629 110.32 0.957739 110.89 0.735487C111.46 0.513231 111.771 0.58732 111.909 1.21703C112.048 1.84674 112.013 3.03203 111.27 4.82855C110.527 6.62508 109.075 9.03271 108.056 10.9033C107.036 12.7739 106.449 14.1073 105.81 15.6816C105.17 17.2559 104.479 19.0709 103.822 20.3673C103.166 21.6638 102.544 22.4416 102.198 23.9789C101.853 25.5161 101.783 27.8126 101.991 29.535C102.198 31.2575 102.682 32.4057 103.494 34.0911C104.306 35.7765 105.447 37.999 106.535 39.9807C107.624 41.9624 108.661 43.7033 109.68 45.648C110.7 47.5926 111.702 49.741 112.497 52.0005C113.292 54.2601 113.879 56.6307 113.983 59.5199C114.087 62.4091 113.707 65.8169 113.223 68.4654C112.739 71.1138 112.151 73.0029 110.752 75.6699C109.352 78.3369 107.14 81.7816 104.894 84.4116C102.647 87.0415 100.367 88.8565 98.2757 90.19C96.1848 91.5235 94.2843 92.3754 92.1071 92.9495C89.9298 93.5237 87.4761 93.82 85.3679 93.8941C83.2598 93.9682 81.4973 93.82 80.4087 93.32C79.3201 92.8199 78.9054 91.968 79.1473 91.3197C79.3893 90.6715 80.2878 90.227 81.4628 89.7825C82.6378 89.338 84.0892 88.8935 85.4198 88.2638C86.7503 87.6341 87.9598 86.8192 89.2558 85.8376C90.5518 84.856 91.9342 83.7078 93.5067 82.3002C95.0791 80.8926 96.8415 79.2258 98.2239 77.3737C99.6062 75.5216 100.609 73.4844 101.438 71.2249C102.267 68.9653 102.924 66.4836 103.46 63.7796C103.995 61.0755 104.41 58.1493 104.462 55.5379C104.514 52.9265 104.203 50.63 103.84 48.6112C103.477 46.5924 103.062 44.8516 102.803 43.5366C102.544 42.2216 102.44 41.3326 102.388 39.9991C102.336 38.6656 102.336 36.8877 101.991 35.4246C101.645 33.9614 100.954 32.8132 100.246 31.813C99.5372 30.8129 98.8115 29.961 98.3795 29.1276C97.9475 28.2941 97.8092 27.4793 97.7055 26.3865C97.6018 25.2938 97.5327 23.9233 97.5502 24.09C97.5669 24.2567 97.6711 25.9605 97.17 27.3126C96.6689 28.6646 95.5631 29.6647 94.1634 30.6833C92.7637 31.702 91.0703 32.7391 89.3251 33.6651C87.5798 34.5912 85.7827 35.4061 83.5364 36.5173C81.29 37.6286 78.5946 39.0361 76.3137 40.5177C74.0328 41.9994 72.1666 43.5551 70.404 45.648C68.6415 47.7408 66.9827 50.3707 65.6348 52.8895C64.287 55.4084 63.2503 57.816 62.6456 59.9829C62.0408 62.1498 61.8679 64.0759 61.8334 65.9651C61.7987 67.8542 61.9026 69.7062 62.1963 71.5953C62.4901 73.4844 62.9739 75.4105 63.475 77.0589C63.9761 78.7072 64.4944 80.0777 65.1684 81.3927C65.8423 82.7077 66.6718 83.967 67.1037 84.6337C67.5357 85.3004 67.5703 85.3746 66.827 85.3375C66.0836 85.3003 64.5635 85.1525 63.5094 84.4301Z" stroke="#BD0300" stroke-width="0.800462" stroke-miterlimit="3.2" stroke-linecap="round" stroke-linejoin="round"/>
<path d="M97.5052 27.9092C95.6911 30.0583 93.877 32.2074 91.5377 33.9728C89.1983 35.7381 86.3339 37.1197 83.5649 39.0386C80.7959 40.9574 78.1225 43.4135 75.7594 46.3046C73.3962 49.1957 71.3435 52.5216 69.959 55.7453C68.5745 58.969 67.8584 62.0903 67.5481 65.6722C67.2378 69.2541 67.3332 73.2964 67.6435 76.3666C67.9538 79.4368 68.479 81.5347 69.0758 82.9674C69.6725 84.4002 70.341 85.1677 71.3913 85.6282C72.4416 86.0887 73.8738 86.2422 75.497 85.9608C77.1202 85.6794 78.9342 84.963 80.9393 83.7094C82.9444 82.4557 85.1405 80.6648 87.0502 78.4645C88.9598 76.2642 90.5829 73.6546 92.0152 70.7891C93.4474 67.9236 94.6886 64.8023 95.5002 62.1159C96.3118 59.4295 96.6936 57.1781 96.8607 54.9778C97.0278 52.7774 96.9801 50.6284 96.9324 47.8908C96.8847 45.1532 96.8369 41.8273 96.7176 39.2944C96.5983 36.7614 96.4072 35.0217 96.536 32.8137C96.6648 30.6056 97.1137 27.9294 97.4956 28.4667C97.8775 29.0039 98.1927 32.7547 98.6128 35.6792C99.033 38.6036 99.5581 40.7015 100.036 42.8762C100.513 45.0509 100.943 47.3023 101.325 49.6306C101.706 51.9588 102.041 54.3637 101.993 57.0757C101.945 59.7878 101.516 62.8067 100.728 65.5954C99.94 68.3842 98.7943 70.9426 97.2427 73.3988C95.6911 75.8549 93.7338 78.2086 91.6093 80.2043C89.4848 82.1999 87.1932 83.8373 84.8062 85.1165C82.4191 86.3958 79.9368 87.3168 78.5046 87.8541C77.0723 88.3914 76.6903 88.5449 76.1484 88.3717C75.6065 88.1986 74.9046 87.6987 74.0515 87.2857C73.1983 86.8726 72.1939 86.5464 71.5698 85.535C70.9458 84.5235 70.7023 82.827 70.6109 80.8857C70.5196 78.9444 70.5804 76.7585 70.763 73.92C70.9456 71.0814 71.25 67.5905 72.0719 64.2462C72.8938 60.902 74.2331 57.7047 75.8312 54.7193C77.4293 51.734 79.2862 48.9608 81.1278 46.5301C82.9694 44.0994 84.7958 42.0113 86.2265 40.4127C87.6571 38.814 88.6921 37.7047 89.6661 36.7585C90.6402 35.8124 91.5535 35.0294 92.6524 33.8519C93.7512 32.6745 95.0355 31.1029 95.279 31.1192C95.5227 31.1355 94.7252 32.7398 93.8242 34.1945C92.9232 35.6493 91.9189 36.9543 90.8078 38.5693C89.6967 40.1843 88.479 42.1093 87.2766 44.1648C86.0742 46.2202 84.887 48.4062 83.5476 51.3915C82.2083 54.3769 80.7168 58.1615 79.3927 61.8646C78.0685 65.5677 76.9118 69.1892 75.9985 72.0277C75.0853 74.8662 74.4157 76.9216 73.9439 78.7977C73.4721 80.6737 73.1982 82.3702 72.9249 83.5419C72.6515 84.7135 72.379 85.3601 72.6378 85.1807C72.8964 85.0013 73.6865 83.9957 74.5533 82.9546C75.4202 81.9134 76.3639 80.8368 77.4446 79.2544C78.5252 77.672 79.7427 75.5839 80.869 73.4143C81.9953 71.2446 83.0303 68.9934 84.0958 66.5301C85.1612 64.0668 86.257 61.3915 87.155 58.9934C88.053 56.5953 88.753 54.4747 89.377 52.4518C90.001 50.429 90.5489 48.504 91.1425 46.5301C91.7361 44.5562 92.3753 42.5334 92.9385 40.6411C93.5016 38.7487 93.9888 36.9869 94.3693 35.6329C94.7497 34.2789 95.0237 33.3328 95.5682 31.946C96.1126 30.5593 96.9276 28.7322 96.8819 29.4989C96.8364 30.2657 95.9299 33.6263 95.4311 36.367C94.9323 39.1077 94.8412 41.2284 94.7499 43.3001C94.6586 45.372 94.5672 47.3947 94.3237 49.4339C94.0803 51.4731 93.6845 53.5285 93.0757 56.0245C92.4669 58.5204 91.6448 61.4567 90.7621 64.0342C89.8793 66.6118 88.9357 68.8303 87.9464 70.7226C86.9571 72.615 85.9222 74.181 84.8416 75.7308C83.7609 77.2806 82.6347 78.8139 81.554 79.9722C80.4734 81.1305 79.4384 81.9135 77.9039 82.8693C76.3694 83.8251 74.3353 84.9537 72.3012 86.0823" stroke="#BD0300" stroke-width="0.800462" stroke-miterlimit="3.2" stroke-linecap="round" stroke-linejoin="round"/>
</svg>
