<svg width="112" height="102" viewBox="0 0 112 102" fill="none" xmlns="http://www.w3.org/2000/svg">
<path d="M20.8427 8.97733C20.9394 8.70002 22.0704 8.64073 23.1472 9.01458C24.2241 9.38838 25.247 10.1952 26.3969 11.1355C27.5468 12.0758 28.8237 13.1496 30.3633 14.1428C31.9029 15.1361 33.7051 16.0488 36.078 16.7149C38.4509 17.381 41.3944 17.8003 43.995 18.0376C46.5956 18.2748 48.853 18.3299 51.3922 19.3041C53.9313 20.2784 56.752 22.1716 59.3536 24.1465C61.9552 26.1213 64.3376 28.1777 67.0112 30.7624C69.6848 33.3472 72.6494 36.4602 75.5857 38.9645C78.5219 41.4688 81.4294 43.3642 84.821 45.0108C88.2125 46.6574 92.0879 48.0552 95.3608 49.2211C98.6338 50.3869 101.304 51.3209 103.629 52.1595C105.955 52.9982 107.935 53.7416 109.255 54.8163C110.575 55.8911 111.236 57.2973 110.652 58.1084C110.067 58.9195 108.237 59.1354 105.921 59.7304C103.604 60.3255 100.8 61.2996 97.9504 62.3595C95.1009 63.4193 92.2061 64.5649 88.2078 64.6411C84.2095 64.7173 79.1079 63.7239 73.9841 61.8612C68.8603 59.9986 63.7143 57.2666 59.4757 54.7306C55.2371 52.1945 51.9061 49.8544 48.4585 46.9466C45.0109 44.0389 41.4469 40.5637 38.7458 37.3267C36.0447 34.0897 34.2066 31.091 33.313 28.5497C32.4194 26.0084 32.4703 23.9246 32.2092 22.2265C31.9482 20.5285 31.3753 19.2164 30.2861 17.9039C29.197 16.5915 27.5917 15.2788 26.551 14.4347C25.5103 13.5906 25.0343 13.2151 24.4734 12.595C23.9124 11.9749 23.2664 11.1101 22.4748 10.4301C21.6832 9.74998 20.7459 9.25464 20.8427 8.97733Z" stroke="#BD0300" stroke-width="1.40646" stroke-miterlimit="3.2" stroke-linecap="round" stroke-linejoin="round"/>
<path d="M50.4426 22.9566C49.5418 23.3659 48.641 23.7752 47.5712 23.8957C46.5014 24.0162 45.2626 23.8477 43.9943 24.1794C42.726 24.511 41.4283 25.3424 40.5598 26.2706C39.6912 27.1989 39.2519 28.2239 39.1227 29.2738C38.9934 30.3237 39.1745 31.3984 39.6028 32.2374C40.0311 33.0765 40.7069 33.6799 41.3352 34.1095C41.9634 34.5392 42.544 34.795 43.3229 34.7105C44.1018 34.6258 45.0789 34.2009 45.992 33.5672C46.9052 32.9335 47.7543 32.0911 48.2589 31.2231C48.7634 30.355 48.9234 29.4612 49.0673 28.5153C49.2114 27.5693 49.3391 26.5713 49.4672 25.5732" stroke="#BD0300" stroke-width="0.843876" stroke-miterlimit="3.2" stroke-linecap="round" stroke-linejoin="round"/>
<path d="M58.0176 27.4401C57.3166 27.8718 56.6156 28.3035 55.7976 28.577C54.9795 28.8505 54.0446 28.9658 53.0738 29.132C52.103 29.2983 51.0965 29.5153 50.3483 29.756C49.6001 29.9967 49.1103 30.2609 48.5069 30.9367C47.9035 31.6124 47.1864 32.6997 46.7812 33.7429C46.376 34.786 46.2826 35.7849 46.3095 36.8041C46.3363 37.8233 46.4836 38.8626 47.1187 39.724C47.7537 40.5854 48.8762 41.2688 49.8852 41.6559C50.8943 42.043 51.7897 42.1339 52.5362 41.9622C53.2827 41.7904 53.8803 41.3563 54.5506 40.7684C55.221 40.1806 55.964 39.4392 56.4332 38.6048C56.9024 37.7703 57.0977 36.843 57.2421 35.8798C57.3866 34.9166 57.4799 33.9176 57.5902 32.9363C57.7005 31.9551 57.8278 30.9915 57.9997 30.3052C58.1718 29.6189 58.3889 29.2098 58.6133 28.9573C58.8375 28.7048 59.069 28.6088 59.3004 28.5128" stroke="#BD0300" stroke-width="0.843876" stroke-miterlimit="3.2" stroke-linecap="round" stroke-linejoin="round"/>
<path d="M65.92 34.6754C65.3175 35.3167 64.7149 35.958 63.912 36.3181C63.1092 36.6783 62.106 36.7574 61.1559 36.786C60.2058 36.8145 59.3087 36.7926 58.6329 36.897C57.9571 37.0015 57.5026 37.232 56.8454 37.9928C56.1881 38.7536 55.3279 40.0445 54.8688 41.1726C54.4097 42.3008 54.3515 43.266 54.4672 44.1838C54.5828 45.1015 54.8724 45.9717 55.4598 46.6593C56.0472 47.3469 56.9325 47.8518 57.8726 48.2373C58.8127 48.6228 59.8074 48.8887 60.8998 48.691C61.9922 48.4933 63.1821 47.8318 64.0452 47.1278C64.9082 46.4238 65.4443 45.6774 65.8138 44.6851C66.1833 43.6929 66.3861 42.455 66.4842 41.2663C66.5822 40.0775 66.5754 38.938 66.5764 38.1785C66.5781 37.419 66.5873 37.0394 66.7505 36.6982C66.9142 36.3569 67.2324 36.054 67.5505 35.751" stroke="#BD0300" stroke-width="0.843876" stroke-miterlimit="3.2" stroke-linecap="round" stroke-linejoin="round"/>
<path d="M74.2336 42.7327C73.8322 42.9128 73.0292 43.2729 72.2798 43.5654C71.5303 43.8578 70.8343 44.0825 69.9481 44.3198C69.0619 44.5571 67.9857 44.807 67.1483 45.1664C66.3108 45.5257 65.7125 45.9944 65.2828 46.6226C64.8531 47.2509 64.5923 48.0386 64.4673 48.9159C64.3422 49.7933 64.3532 50.7603 64.6095 51.5779C64.8658 52.3955 65.3674 53.0637 66.0458 53.5636C66.7241 54.0635 67.579 54.3951 68.4383 54.5542C69.2976 54.7132 70.161 54.6999 70.9243 54.5459C71.6877 54.3918 72.3509 54.0973 73.0014 53.6126C73.652 53.1278 74.2898 52.4529 74.6534 51.7022C75.017 50.9516 75.1061 50.1251 75.1819 49.143C75.2575 48.1609 75.32 47.0231 75.2221 46.0885C75.1239 45.1539 74.8657 44.4226 74.7412 43.8671C74.6167 43.3117 74.6261 42.9322 74.6307 42.7424C74.6353 42.5525 74.6351 42.5527 74.2336 42.7327Z" stroke="#BD0300" stroke-width="0.843876" stroke-miterlimit="3.2" stroke-linecap="round" stroke-linejoin="round"/>
<path d="M82.3341 48.1968C82.3226 48.6683 82.2996 49.6113 82.263 50.6161C82.2265 51.6209 82.1752 52.6873 82.137 53.7417C82.0992 54.7962 82.0737 55.8384 81.8544 56.6649C81.6356 57.4914 81.2235 58.1022 80.581 58.4838C79.9385 58.8654 79.0656 59.0179 78.1223 59.0073C77.179 58.9963 76.1651 58.8229 75.3183 58.4174C74.4715 58.0118 73.7919 57.3745 73.4254 56.6206C73.0589 55.8667 73.0057 54.9963 73.236 54.2073C73.4664 53.4184 73.9803 52.7108 74.533 51.9421C75.0856 51.1734 75.6769 50.3436 76.5222 49.7931C77.3675 49.2426 78.4667 48.9714 79.4796 48.6734C80.4925 48.3753 81.4193 48.0503 81.8826 47.8878C82.3459 47.7252 82.3457 47.7252 82.3341 48.1968Z" stroke="#BD0300" stroke-width="0.843876" stroke-miterlimit="3.2" stroke-linecap="round" stroke-linejoin="round"/>
<path d="M89.2761 51.1848C89.2788 51.5697 89.2853 52.3397 89.3551 53.0367C89.4251 53.7337 89.5587 54.3577 89.6522 55.1049C89.7457 55.8521 89.7988 56.7225 89.8279 57.5675C89.8568 58.4125 89.8617 59.232 89.5491 59.8327C89.2364 60.4335 88.6063 60.8154 87.9311 61.01C87.2559 61.2046 86.5356 61.2118 85.842 61.1453C85.1483 61.0786 84.4813 60.9383 83.8706 60.5261C83.2598 60.1138 82.7054 59.4299 82.4085 58.8764C82.1116 58.3228 82.0723 57.8997 82.1349 57.3674C82.1977 56.835 82.3623 56.1934 82.7364 55.619C83.1104 55.0446 83.6939 54.5374 84.5135 54.0235C85.3331 53.5097 86.3886 52.9892 87.1301 52.6224C87.8715 52.2556 88.299 52.0426 88.6037 51.7644C88.9085 51.4863 89.0907 51.1431 89.1818 50.9715C89.2728 50.7999 89.273 50.7999 89.2761 51.1848Z" stroke="#BD0300" stroke-width="0.843876" stroke-miterlimit="3.2" stroke-linecap="round" stroke-linejoin="round"/>
<path d="M95.1683 52.9428C95.1511 53.1535 95.1156 53.5747 95.2158 54.0489C95.3161 54.5232 95.5514 55.0504 95.7633 55.5273C95.975 56.0043 96.1632 56.431 96.3387 56.8699C96.5141 57.3087 96.6771 57.7596 96.6299 58.1682C96.5827 58.5767 96.3254 58.943 96.0207 59.2211C95.7159 59.4992 95.3636 59.6892 94.8022 59.7997C94.2408 59.9101 93.4702 59.9411 92.8526 59.8144C92.2349 59.6875 91.77 59.4031 91.4916 59.1107C91.2132 58.8184 91.1212 58.5182 91.0943 58.0954C91.0673 57.6726 91.1059 57.1272 91.2675 56.5973C91.4295 56.0674 91.7151 55.5529 92.0353 55.151C92.3555 54.7491 92.7102 54.4598 93.1526 54.1354C93.5951 53.8109 94.1254 53.4514 94.4814 53.1125C94.8373 52.7735 95.0189 52.4552 95.1072 52.3952C95.1955 52.3353 95.1906 52.5338 95.1882 52.6331C95.1857 52.7323 95.1854 52.7322 95.1683 52.9428Z" stroke="#BD0300" stroke-width="0.843876" stroke-miterlimit="3.2" stroke-linecap="round" stroke-linejoin="round"/>
<path d="M38.5779 22.5814C39.8241 22.1855 41.0703 21.7895 42.3538 21.6076C43.6374 21.4258 44.9583 21.458 46.4237 21.6856C47.8892 21.9132 49.4991 22.3363 50.8284 22.9017C52.1576 23.4671 53.2063 24.1749 54.402 24.9716C55.5977 25.7682 56.9405 26.6538 58.1149 27.4499C59.2893 28.2461 60.2955 28.9528 61.2563 29.7651C62.2172 30.5773 63.1327 31.495 64.1122 32.4143C65.0918 33.3337 66.1352 34.2545 66.9672 35.1063C67.7992 35.958 68.4196 36.7406 69.3976 37.7238C70.3756 38.7071 71.7112 39.8909 73.0477 41.0321C74.3843 42.1733 75.7218 43.2719 77.1051 44.2437C78.4885 45.2155 79.9175 46.0605 81.6007 46.9756C83.2839 47.8908 85.2211 48.8761 86.8243 49.5761C88.4274 50.2761 89.6964 50.6909 91.391 51.1373C93.0857 51.5837 95.2058 52.0618 96.9649 52.4885C98.724 52.9152 100.122 53.2904 101.22 53.7223C102.318 54.1542 103.116 54.6426 103.469 55.0137C103.823 55.3847 103.731 55.6383 103.512 55.9101C103.292 56.1819 102.943 56.4718 102.64 56.6563C102.337 56.8408 102.08 56.9198 101.822 56.9988" stroke="#BD0300" stroke-width="0.843876" stroke-miterlimit="3.2" stroke-linecap="round" stroke-linejoin="round"/>
<path d="M41.8942 27.4918C41.6396 28.1482 41.3851 28.8047 41.301 29.5315C41.2169 30.2584 41.3035 31.0557 41.3901 31.853" stroke="#BD0300" stroke-width="0.843876" stroke-miterlimit="3.2" stroke-linecap="round" stroke-linejoin="round"/>
<path d="M48.6079 35.8452C48.5937 36.428 48.5795 37.0108 48.689 37.4111C48.7985 37.8113 49.0317 38.0291 49.2649 38.2468" stroke="#BD0300" stroke-width="0.843876" stroke-miterlimit="3.2" stroke-linecap="round" stroke-linejoin="round"/>
<path d="M57.1016 42.9712C57.0912 43.395 57.0808 43.8189 57.2048 44.1665C57.3288 44.5141 57.5873 44.7854 57.8457 45.0568" stroke="#BD0300" stroke-width="0.843876" stroke-miterlimit="3.2" stroke-linecap="round" stroke-linejoin="round"/>
<path d="M67.7273 47.4447C67.3713 47.9131 67.0153 48.3815 66.8328 48.8011C66.6504 49.2208 66.6413 49.5917 66.6745 49.8575C66.7076 50.1234 66.7833 50.2843 66.859 50.4452" stroke="#BD0300" stroke-width="0.843876" stroke-miterlimit="3.2" stroke-linecap="round" stroke-linejoin="round"/>
<path d="M75.688 53.6035C75.6519 54.0002 75.6154 54.3969 75.5793 54.7936" stroke="#BD0300" stroke-width="0.843876" stroke-miterlimit="3.2" stroke-linecap="round" stroke-linejoin="round"/>
<path d="M84.1118 57.0688C84.287 57.4972 84.4621 57.9256 84.6371 58.354" stroke="#BD0300" stroke-width="0.843876" stroke-miterlimit="3.2" stroke-linecap="round" stroke-linejoin="round"/>
<path d="M36.1582 24.7422C36.3338 26.1295 36.5096 27.5169 36.9346 28.9942C37.3595 30.4715 38.0337 32.0387 39.2893 33.8296C40.5448 35.6205 42.3817 37.6352 44.7176 39.8087C47.0535 41.9823 49.8884 44.3147 53.0191 46.5496C56.1499 48.7845 59.5763 50.9217 62.9426 52.9528C66.3088 54.9839 69.6146 56.9086 72.4502 58.361C75.2857 59.8133 77.6506 60.793 80.1302 61.3775C82.6097 61.9619 85.2034 62.1509 87.2155 62.1372C89.2276 62.1233 90.6579 61.9069 92.0698 61.5851C93.4818 61.2633 94.8752 60.8363 95.9744 60.444C97.0737 60.0517 97.8788 59.6942 98.6838 59.3367" stroke="#BD0300" stroke-width="0.843876" stroke-miterlimit="3.2" stroke-linecap="round" stroke-linejoin="round"/>
<path d="M6.63807 5.07942C6.83134 4.74124 7.21769 3.38848 6.92785 2.51887C6.63798 1.64925 5.67172 1.26275 4.60886 1.456C3.54601 1.64925 2.38654 2.42225 1.71017 3.58176C1.0338 4.74127 0.840568 6.28723 1.13046 7.78493C1.42033 9.28264 2.19328 10.732 3.15952 11.9881C4.12578 13.2442 5.28523 14.3071 6.20318 15.5149C7.12112 16.7227 7.79752 18.0754 8.47389 19.2349C9.15026 20.3944 9.82662 21.3607 10.4547 23.0516C11.0828 24.7426 11.6625 27.1582 11.8075 29.2839C11.9524 31.4097 11.6625 33.2455 11.4693 36.2892C11.276 39.3329 11.1794 43.5843 11.8075 47.7392C12.4356 51.8941 13.7881 55.9523 15.8656 60.7353C17.9431 65.5182 20.7451 71.0257 23.8372 75.9536C26.9292 80.8815 30.311 85.2295 33.8862 88.6597C37.4613 92.0899 41.2297 94.6021 44.8049 96.4863C48.38 98.3705 51.7618 99.6266 55.1437 100.4C58.5256 101.173 61.9073 101.462 64.6611 101.221C67.4149 100.979 69.5406 100.206 71.4248 99.6749C73.3091 99.1435 74.9516 98.8536 75.3864 97.7907C75.8212 96.7278 75.0483 94.892 73.7438 92.9595C72.4394 91.027 70.6035 88.9979 68.4777 87.3553C66.352 85.7126 63.9364 84.4566 61.714 83.2487C59.4916 82.0409 57.4625 80.8814 55.385 79.2871C53.3076 77.6928 51.1819 75.6637 48.9112 73.1514C46.6405 70.6392 44.225 67.6438 42.534 64.4069C40.843 61.1699 39.8769 57.6915 38.7657 53.9231C37.6545 50.1547 36.3984 46.0966 35.1423 42.908C33.8862 39.7193 32.63 37.4003 31.084 35.6128C29.538 33.8252 27.7022 32.5691 25.9146 31.5062C24.1271 30.4433 22.3878 29.5738 20.7935 28.0761C19.1992 26.5784 17.7499 24.4527 16.4454 22.6651C15.141 20.8775 13.9815 19.4282 12.9669 18.6552C11.9523 17.8822 11.0828 17.7855 10.5996 17.0609C10.1165 16.3361 10.0199 14.9834 9.44007 13.9689C8.86031 12.9543 7.79755 12.278 6.4931 11.0701C5.18865 9.86228 3.64271 8.12309 3.06297 6.6254C2.48324 5.12772 2.86959 3.87162 3.35275 3.24356C3.83587 2.6155 4.41563 2.61549 4.94706 2.85705C5.4785 3.09862 5.9616 3.58174 6.20318 4.16149C6.44475 4.74124 6.44484 5.41761 6.63807 5.07942Z" stroke="#BD0300" stroke-width="0.843876" stroke-miterlimit="3.2" stroke-linecap="round" stroke-linejoin="round"/>
<path d="M15.3339 32.5088C14.9819 34.6211 14.6299 36.7334 14.2778 38.9513C13.9258 41.1693 13.5737 43.4927 13.785 46.0627C13.9963 48.6327 14.7706 51.449 15.2283 53.1741C15.686 54.8991 15.8268 55.5328 16.4605 57.1171C17.0942 58.7013 18.2207 61.236 19.3825 63.7708C20.5443 66.3056 21.7413 68.8403 22.9735 71.0934C24.2056 73.3466 25.4729 75.318 26.6699 76.9374C27.8669 78.5569 28.9934 79.8242 30.12 81.0916" stroke="#BD0300" stroke-width="0.843876" stroke-miterlimit="3.2" stroke-linecap="round" stroke-linejoin="round"/>
<path d="M17.6572 44.3371C18.8542 44.5484 20.0511 44.7595 21.0369 44.7243C22.0227 44.6892 22.7971 44.4075 23.7124 43.809C24.6278 43.2105 25.6839 42.2952 26.7401 41.3799" stroke="#BD0300" stroke-width="0.843876" stroke-miterlimit="3.2" stroke-linecap="round" stroke-linejoin="round"/>
<path d="M21.0366 59.7573C22.9377 60.1094 24.8388 60.4614 26.5287 60.215C28.2185 59.9685 29.697 59.1236 30.718 58.4195C31.7389 57.7154 32.3022 57.1522 32.8654 56.5889" stroke="#BD0300" stroke-width="0.843876" stroke-miterlimit="3.2" stroke-linecap="round" stroke-linejoin="round"/>
<path d="M29.2749 77.2888C31.1056 77.148 32.9362 77.0072 34.4852 76.7607C36.0343 76.5143 37.3016 76.1623 38.2521 75.4934C39.2027 74.8245 39.8363 73.8388 40.47 72.853" stroke="#BD0300" stroke-width="0.843876" stroke-miterlimit="3.2" stroke-linecap="round" stroke-linejoin="round"/>
<path d="M42.1597 88.9062C43.6383 88.4838 45.1169 88.0613 46.3139 87.498C47.5109 86.9347 48.4261 86.2307 48.9894 85.3857C49.5527 84.5408 49.764 83.5551 49.9753 82.5693" stroke="#BD0300" stroke-width="0.843876" stroke-miterlimit="3.2" stroke-linecap="round" stroke-linejoin="round"/>
<path d="M56.1011 95.6664C57.0868 95.1031 58.0725 94.5398 58.7414 93.9061C59.4103 93.2724 59.7623 92.5684 60.0088 91.6882C60.2552 90.8081 60.396 89.7519 60.5369 88.6958" stroke="#BD0300" stroke-width="0.843876" stroke-miterlimit="3.2" stroke-linecap="round" stroke-linejoin="round"/>
<path d="M24.416 34.6206C25.965 35.6768 27.5141 36.7329 28.7111 38.0355C29.9081 39.3381 30.7529 40.8871 31.7034 42.6474C32.6539 44.4077 33.7102 46.379 34.4143 48.4914C35.1184 50.6037 35.4704 52.8568 36.1393 55.3211C36.8082 57.7855 37.7939 60.461 38.7092 62.6085C39.6246 64.7561 40.4694 66.3754 41.4552 68.0301C42.4409 69.6848 43.5675 71.3746 44.9757 73.0996C46.3839 74.8247 48.0738 76.5849 49.3412 77.8523C50.6086 79.1196 51.4534 79.8941 53.1785 81.0207C54.9035 82.1473 57.5087 83.6259 59.5154 84.7524C61.5221 85.879 62.9302 86.6535 64.4088 87.6392C65.8874 88.625 67.4365 89.8219 68.7743 91.0189C70.1121 92.2159 71.2386 93.4128 71.2738 94.293C71.3091 95.1731 70.2528 95.7364 68.7389 96.2292C67.2251 96.7221 65.2537 97.1445 63.2822 97.567" stroke="#BD0300" stroke-width="0.843876" stroke-miterlimit="3.2" stroke-linecap="round" stroke-linejoin="round"/>
</svg>
