<svg width="79" height="101" viewBox="0 0 79 101" fill="none" xmlns="http://www.w3.org/2000/svg">
<path d="M19.675 14.9515C18.9046 14.9209 17.3636 14.8597 15.6516 15.3797C13.9395 15.8996 12.0563 17.0006 10.4869 17.9487C8.91746 18.8968 7.66195 19.692 6.54911 21.0683C5.43627 22.4446 4.46607 24.4019 3.63858 26.0229C2.81106 27.6438 2.12627 28.9283 1.72678 30.1823C1.32729 31.4362 1.21318 32.6596 1.27025 34.0664C1.32727 35.4733 1.5556 37.0636 1.52706 38.6846C1.49845 40.3056 1.21312 41.9571 1.46998 45.5048C1.72679 49.0526 2.52582 54.4964 3.21064 58.7476C3.89547 62.9988 4.46617 66.0571 4.9798 67.8922C5.49343 69.7272 5.94991 70.3389 6.40646 72.1739C6.86302 74.009 7.31957 77.0673 7.86173 79.667C8.40389 82.2666 9.03172 84.4074 10.116 86.273C11.2003 88.1386 12.7412 89.729 14.5103 90.9218C16.2795 92.1145 18.2768 92.9097 19.8747 93.5826C21.4727 94.2554 22.6711 94.8059 23.5843 95.2341C24.4974 95.6623 25.1251 95.9681 25.9526 96.4574C26.7801 96.9468 27.8073 97.6196 28.8631 98.1701C29.9189 98.7206 31.0031 99.1488 32.6296 99.3323C34.2561 99.5158 36.4247 99.4547 38.1653 99.1794C39.9059 98.9042 41.2184 98.4148 42.1315 97.8337C43.0446 97.2526 43.5583 96.5798 43.9293 96.1516C44.3002 95.7234 44.5284 95.5399 44.9565 95.5094C45.3845 95.4787 46.0122 95.6011 46.7541 95.7234C47.496 95.8458 48.352 95.9681 49.3793 95.907C50.4065 95.8459 51.6049 95.6011 52.8034 95.0812C54.0019 94.5613 55.2003 93.7661 56.3988 92.5733C57.5972 91.3805 58.7957 89.7902 59.7659 88.3834C60.736 86.9765 61.4778 85.7532 62.0771 84.3157C62.6763 82.8782 63.1329 81.2267 63.5324 79.3305C63.9318 77.4343 64.2743 75.2935 64.6453 73.2138C65.0162 71.134 65.4156 69.1155 65.8151 67.4028C66.2146 65.6901 66.6141 64.2833 67.1562 62.8458C67.6984 61.4084 68.3833 59.9404 69.0966 58.3194C69.81 56.6985 70.5518 54.9246 71.3508 53.059C72.1498 51.1934 73.0058 49.236 73.8333 47.5233C74.6608 45.8106 75.4597 44.3426 76.059 42.844C76.6582 41.3454 77.0577 39.8162 77.2289 38.0729C77.4002 36.3296 77.3431 34.3723 77.0577 32.629C76.7723 30.8857 76.2587 29.3565 75.4883 28.1943C74.7178 27.0322 73.6906 26.237 73.0343 25.4418C72.3779 24.6466 72.0927 23.8515 71.522 22.9339C70.9513 22.0164 70.0952 20.9766 69.1536 20.1814C68.2119 19.3862 67.1848 18.8357 66.3287 18.4381C65.4727 18.0405 64.7878 17.7958 63.6464 17.8264C62.505 17.857 60.9071 18.1629 59.7657 18.3464C58.6244 18.5299 57.9396 18.591 57.426 18.1935C56.9124 17.7959 56.57 16.9395 56.1025 16.1257C55.635 15.3119 55.0423 14.5407 54.2609 13.9471C53.4793 13.3535 52.5089 12.9374 51.6355 12.5838C50.7621 12.2301 49.9859 11.9389 49.0736 11.8973C48.1614 11.8557 47.1133 12.0637 45.8906 12.355C44.6678 12.6462 43.2704 13.0206 42.1836 13.3951C41.0967 13.7695 40.3204 14.144 39.7188 14.0192C39.1171 13.8943 38.69 13.2703 37.8942 12.6046C37.0985 11.9389 35.934 11.2316 34.6142 10.7324C33.2944 10.2331 31.8194 9.94186 30.519 9.90026C29.2186 9.85865 28.093 10.0667 26.7732 10.4619C25.4534 10.8572 23.9395 11.4397 22.8333 11.9389C21.727 12.4382 21.0283 12.8542 20.6982 13.3476C20.3681 13.8409 20.4067 14.4115 20.426 14.6968C20.4454 14.9822 20.4454 14.9821 19.675 14.9515Z" stroke="#BD0300" stroke-width="1.42992" stroke-miterlimit="3.2" stroke-linecap="round" stroke-linejoin="round"/>
<path d="M27.438 17.2202C27.8214 17.1268 28.5883 16.94 29.268 16.7158C29.9478 16.4916 30.5404 16.2301 30.9761 15.7631C31.4118 15.296 31.6907 14.6235 31.9173 13.9884C32.1438 13.3532 32.3181 12.7555 32.5621 12.4379C32.8062 12.1203 33.1198 12.0829 33.2418 12.3258C33.3638 12.5686 33.2942 13.0917 33.3988 13.4466C33.5035 13.8016 33.7822 13.9884 34.2354 14.1192C34.6885 14.2499 35.316 14.3246 35.8563 14.1192C36.3966 13.9137 36.8498 13.428 37.4598 12.7368C38.0698 12.0456 38.8367 11.1489 39.5339 10.1214C40.231 9.09397 40.8584 7.93578 41.6079 6.94569C42.3573 5.95561 43.2288 5.13364 44.0654 4.34904C44.902 3.56445 45.7037 2.81724 46.7495 2.25681C47.7952 1.69637 49.0849 1.32278 50.2875 1.17333C51.4902 1.02388 52.6056 1.0986 53.7036 1.30408C54.8017 1.50957 55.8822 1.84581 56.8931 2.23811C57.904 2.63041 58.8452 3.07876 59.4378 3.45237C60.0304 3.82599 60.2744 4.12489 60.379 4.6106C60.4836 5.0963 60.4486 5.76879 60.2569 6.49735C60.0652 7.22591 59.7166 8.01048 59.3157 8.73905C58.9148 9.46761 58.4617 10.1401 57.8342 10.6258C57.2068 11.1115 56.405 11.4104 55.7427 11.317C55.0804 11.2236 54.5576 10.7379 54.1393 10.4017C53.721 10.0654 53.4072 9.8786 53.1806 9.52365C52.954 9.1687 52.8146 8.64566 52.6229 8.23468C52.4312 7.8237 52.1873 7.52481 51.6818 7.50613C51.1764 7.48738 50.4094 7.74899 49.782 8.34678C49.1545 8.94457 48.6665 9.8786 48.3528 10.8313C48.0391 11.7841 47.8997 12.7554 47.8125 13.6335C47.7254 14.5115 47.6905 15.296 47.8996 15.8565C48.1087 16.4169 48.5619 16.7531 48.9977 17.0707C49.4334 17.3883 49.8517 17.6872 49.8691 18.1916C49.8861 18.696 49.5031 19.4058 49.538 19.9289C49.5728 20.452 50.026 20.7882 50.5663 20.9563C51.1066 21.1245 51.7341 21.1245 51.5947 21.4607C51.4552 21.797 50.5489 22.4695 49.6775 23.086C48.806 23.7024 47.9694 24.2629 47.6034 24.898C47.2374 25.5332 47.342 26.243 47.464 26.7287C47.5859 27.2144 47.7253 27.476 47.3418 27.4386C46.9583 27.4013 46.0521 27.065 45.1284 26.6727C44.2046 26.2804 43.2634 25.832 42.3745 25.4024C41.4856 24.9727 40.6491 24.5617 39.7776 24.3936C38.9061 24.2255 37.9998 24.3002 37.1284 24.431C36.2569 24.5618 35.4203 24.7485 34.6535 25.0848C33.8866 25.4211 33.1894 25.9068 32.9454 25.5705C32.7014 25.2342 32.9106 24.076 32.7712 23.2541C32.6317 22.4321 32.1437 21.9464 31.4989 21.386C30.854 20.8256 30.0522 20.1904 29.4073 19.6674C28.7624 19.1443 28.2744 18.7333 27.9084 18.3597C27.5424 17.9861 27.2985 17.6498 27.1765 17.4817C27.0545 17.3136 27.0546 17.3136 27.438 17.2202Z" fill="#BF0000" stroke="#BD0300" stroke-width="0.603375" stroke-miterlimit="3.2" stroke-linecap="round" stroke-linejoin="round"/>
<path d="M12.0151 20.1309C10.658 21.4349 9.3009 22.739 8.34157 24.0431C7.38226 25.3471 6.8207 26.6512 6.46975 28.181C6.11879 29.7108 5.97848 31.4662 6.11888 33.4474C6.25925 35.4286 6.68037 37.6354 7.26531 40.1684C7.85026 42.7013 8.59897 45.5602 9.13714 48.2686C9.67529 50.9771 10.0029 53.535 10.2603 56.2936C10.5177 59.0522 10.7048 62.0114 10.7516 64.5193C10.7984 67.0271 10.7047 69.0835 10.7047 71.4409C10.7047 73.7982 10.7983 76.4565 10.9621 78.4878C11.1258 80.5192 11.3598 81.9235 11.8512 83.353C12.3425 84.7824 13.0913 86.237 13.84 87.6915" stroke="#BD0300" stroke-width="0.857951" stroke-miterlimit="3.2" stroke-linecap="round" stroke-linejoin="round"/>
<path d="M32.6361 23.6288C31.5006 23.504 30.3649 23.3791 29.3604 23.5196C28.3558 23.66 27.4824 24.0657 26.5797 24.6899C25.6771 25.3141 24.7454 26.1567 23.9738 27.0305C23.2022 27.9044 22.5906 28.8094 22.1539 30.0734C21.7171 31.3373 21.4551 32.9601 21.3241 34.4738C21.1931 35.9874 21.1931 37.3917 21.4114 38.6557C21.6298 39.9197 22.0665 41.0431 22.2557 42.5099C22.445 43.9768 22.3869 45.7868 22.3141 47.6593C22.2413 49.5319 22.154 51.4668 21.9218 53.6695C21.6895 55.8723 21.3125 58.3428 20.9992 60.5309C20.6859 62.719 20.4364 64.6246 20.3428 66.6973C20.2493 68.7701 20.3115 71.0099 20.3465 74.4374C20.3805 77.8648 20.3863 82.4795 20.5161 85.3766C20.6459 88.2737 20.8997 89.453 21.5133 90.8818C22.127 92.3106 23.1003 93.9888 24.4409 95.2677C25.7815 96.5465 27.4893 97.426 29.0061 98.0036C30.5228 98.5812 31.8486 98.8569 33.0457 99.0054C34.2428 99.1538 35.3113 99.175 36.3007 99.1008C37.29 99.0265 38.2001 98.8568 39.0905 98.6554C39.9809 98.4539 40.8516 98.2206 41.5639 97.9025C42.2762 97.5844 42.8302 97.1814 43.2754 96.7997C43.7206 96.4179 44.057 96.0574 44.6712 94.7166C45.2853 93.3759 46.1771 91.055 46.7868 89.207C47.3965 87.359 47.7241 85.9839 48.1199 84.3748C48.5157 82.7656 48.9796 80.9225 49.3754 79.1232C49.7712 77.3239 50.0988 75.5685 50.2216 73.857C50.3445 72.1455 50.2626 70.4778 50.2084 69.0442C50.1539 67.6106 50.1266 66.4111 50.3722 64.9483C50.6179 63.4854 51.1365 61.7593 51.957 59.2088C52.7776 56.6583 53.9 53.2836 54.6377 50.7635C55.3755 48.2434 55.7286 46.578 55.9405 45.3479C56.1524 44.1178 56.223 43.323 56.2937 42.5281" stroke="#BD0300" stroke-width="0.603375" stroke-miterlimit="3.2" stroke-linecap="round" stroke-linejoin="round"/>
<path d="M49.0309 28.4644C50.1265 28.6779 51.2219 28.8914 52.1017 29.176C52.9816 29.4607 53.6455 29.8165 54.2265 30.5282C54.8075 31.2399 55.3055 32.3074 55.7371 33.286C56.1687 34.2645 56.5338 35.1541 56.7164 36.0437C56.899 36.9333 56.899 37.8229 56.899 38.7125" stroke="#BD0300" stroke-width="0.857951" stroke-miterlimit="3.2" stroke-linecap="round" stroke-linejoin="round"/>
<path d="M56.5251 26.5893C57.3021 25.8756 58.079 25.1618 59.0594 24.5471C60.0398 23.9325 61.2238 23.417 62.4817 23.1989C63.7396 22.9808 65.0715 23.0601 66.3294 23.3575C67.5873 23.6549 68.7711 24.1704 69.9365 24.7851C71.102 25.3997 72.249 26.1135 73.0629 26.8273C73.8768 27.5411 74.3577 28.2548 74.8757 29.147C75.3936 30.0393 75.9486 31.1099 76.337 32.3591C76.7255 33.6082 76.9475 35.0357 77.1695 36.4632" stroke="#BD0300" stroke-width="0.857951" stroke-miterlimit="3.2" stroke-linecap="round" stroke-linejoin="round"/>
<path d="M58.7698 18.7134C57.9253 19.1659 57.0808 19.6185 56.1697 19.8448C55.2585 20.0711 54.2807 20.0711 53.4362 20.0711C52.5918 20.0711 51.8807 20.0711 51.1696 20.0711" stroke="#BD0300" stroke-width="0.857951" stroke-miterlimit="3.2" stroke-linecap="round" stroke-linejoin="round"/>
<path d="M20.3021 14.998C20.3021 15.5935 20.3021 16.189 20.4577 16.8321C20.6134 17.4752 20.9244 18.166 21.3244 18.4518C21.7244 18.7376 22.2132 18.6185 22.9355 18.69C23.6578 18.7614 24.6133 19.0234 25.3355 19.1187C26.0578 19.214 26.5467 19.1425 27.0356 19.0711" stroke="#BD0300" stroke-width="0.857951" stroke-miterlimit="3.2" stroke-linecap="round" stroke-linejoin="round"/>
</svg>
