<svg width="125" height="135" viewBox="0 0 125 135" fill="none" xmlns="http://www.w3.org/2000/svg">
<path d="M16.1485 49.9888C14.898 51.5263 13.6981 53.5689 12.9107 55.6621C12.1233 57.7553 11.7487 59.8989 11.489 62.5141C11.2293 65.1292 11.0846 68.2157 11.3195 70.7944C11.5544 73.3732 12.1688 75.444 13.5023 78.0257C14.8358 80.6074 16.8883 83.6999 19.5637 86.1134C22.239 88.5269 25.5373 90.2615 28.6032 91.143C31.669 92.0245 34.5025 92.053 36.8083 91.5595C39.1141 91.0659 40.8922 90.0505 42.4664 88.9199C44.0406 87.7893 45.4107 86.5437 46.6738 85.1325C47.9369 83.7212 49.0928 82.1445 50.1094 80.419C51.126 78.6934 52.0031 76.8192 52.6534 74.4875C53.3037 72.1558 53.7272 69.3668 53.6364 66.7572C53.5456 64.1476 52.9406 61.7176 51.9229 59.2369C50.9053 56.7563 49.4749 54.2251 47.8288 52.0278C46.1828 49.8305 44.321 47.967 42.4922 46.662C40.6635 45.3569 38.8679 44.6102 37.1645 43.9927C35.461 43.3751 33.8497 42.8866 31.9384 42.9088C30.0271 42.931 27.8158 43.4638 25.7762 44.1285C23.7366 44.7933 21.8687 45.5899 20.2843 46.5044C18.6999 47.4191 17.399 48.4513 16.1485 49.9888Z" stroke="#BD0300" stroke-width="1.11295" stroke-miterlimit="3.2" stroke-linecap="round" stroke-linejoin="round"/>
<path d="M59.7762 74.3795C58.3425 75.4742 56.3953 77.0972 54.7014 78.5881C53.0075 80.0789 51.5668 81.4377 50.4188 82.9479C49.2708 84.4581 48.4154 86.1196 47.5384 88.0095C46.6614 89.8994 45.7629 92.0176 45.2125 93.9543C44.6622 95.8911 44.46 97.6462 44.6092 99.6958C44.7584 101.745 45.2589 104.089 46.1933 106.555C47.1278 109.02 48.4962 111.606 49.9835 113.826C51.4708 116.047 53.0769 117.901 55.0405 119.222C57.0041 120.543 59.3251 121.33 61.3095 121.858C63.2939 122.387 64.9416 122.657 66.8303 122.671C68.7189 122.685 70.8483 122.443 72.9407 121.83C75.0331 121.217 77.0884 120.232 79.0286 118.873C80.9689 117.515 82.794 115.782 84.4848 113.815C86.1756 111.848 87.732 109.647 88.6715 107.161C89.611 104.674 89.9335 101.901 89.8414 98.8661C89.7492 95.8316 89.2425 92.5357 88.4392 89.8285C87.636 87.1213 86.5364 85.0029 85.2931 83.0026C84.0499 81.0024 82.663 79.1204 81.4522 77.6676C80.2414 76.2148 79.2067 75.1913 77.6145 74.5886C76.0224 73.9858 73.8728 73.8039 72.32 73.4846C70.7672 73.1652 69.8113 72.7084 68.3659 72.4633C66.9204 72.2182 64.9856 72.185 63.5579 72.4517C62.1303 72.7183 61.2099 73.2847 59.7762 74.3795Z" stroke="#BD0300" stroke-width="1.11295" stroke-miterlimit="3.2" stroke-linecap="round" stroke-linejoin="round"/>
<path d="M73.9599 40.8289C73.0991 42.5987 72.4767 44.3387 72.2225 46.2641C71.9684 48.1896 72.0827 50.3003 72.1307 52.3513C72.1787 54.4024 72.1604 56.3935 72.4542 58.1277C72.748 59.8618 73.354 61.3388 73.9549 63.0073C74.5559 64.6757 75.1517 66.5354 76.0917 68.2158C77.0316 69.8962 78.3156 71.3972 79.5248 72.5126C80.7341 73.628 81.8686 74.3576 83.1701 75.189C84.4717 76.0204 85.9402 76.9534 87.6914 77.456C89.4427 77.9585 91.4767 78.0305 93.6533 77.8395C95.83 77.6485 98.1492 77.1943 100.542 76.513C102.935 75.8317 105.402 74.9232 107.435 73.7694C109.467 72.6156 111.064 71.2167 112.349 69.4618C113.633 67.707 114.605 65.5963 115.375 63.4019C116.145 61.2075 116.714 58.9294 117.075 56.1459C117.437 53.3624 117.591 50.0738 117.545 47.3141C117.498 44.5545 117.251 42.3241 116.539 40.3836C115.826 38.4431 114.648 36.7926 113.372 35.0045C112.095 33.2163 110.721 31.2907 109.171 29.5504C107.622 27.8101 105.899 26.2552 104.128 25.1965C102.357 24.1379 100.54 23.5755 98.8658 23.363C97.1917 23.1505 95.6612 23.2878 93.8664 23.7988C92.0716 24.3098 90.0125 25.1945 87.7444 26.2824C85.4764 27.3703 82.9994 28.6615 81.177 30.225C79.3546 31.7884 78.1868 33.624 77.0532 35.4417C75.9197 37.2594 74.8207 39.059 73.9599 40.8289Z" stroke="#BD0300" stroke-width="1.11295" stroke-miterlimit="3.2" stroke-linecap="round" stroke-linejoin="round"/>
<path d="M47.0251 23.5891C46.4642 24.1687 45.3424 25.3279 44.308 26.5234C43.2737 27.7189 42.3269 28.9507 41.9323 29.9358C41.5377 30.9208 41.6954 31.659 42.0697 32.5714C42.444 33.4838 43.0349 34.5704 43.9141 35.917C44.7933 37.2635 45.9605 38.87 47.2103 40.1464C48.46 41.4228 49.7921 42.3691 50.9587 43.4427C52.1252 44.5164 53.1262 45.7175 53.4341 46.9106C53.7421 48.1037 53.357 49.2888 52.7764 50.617C52.1958 51.9451 51.4198 53.4161 50.3767 54.9444C49.3337 56.4726 48.0236 58.0579 47.1475 58.8428C46.2715 59.6276 45.8294 59.612 45.156 58.8554C44.4826 58.0989 43.578 56.6017 42.7586 55.224C41.9393 53.8462 41.2054 52.5882 40.8281 51.2261C40.4508 49.864 40.4303 48.398 40.3455 47.1295C40.2608 45.8611 40.1119 44.7902 39.6356 44.9565C39.1593 45.1229 38.3554 46.5262 38.0258 47.8466C37.6962 49.1669 37.8407 50.4042 38.2384 51.5505C38.636 52.6968 39.2868 53.7523 38.7806 53.9342C38.2743 54.116 36.611 53.4245 34.9754 52.8004C33.3398 52.1763 31.732 51.6198 30.5159 51.3103C29.2998 51.0008 28.4755 50.9383 27.8336 51.232C27.1916 51.5255 26.7321 52.1754 26.7168 52.7576C26.7016 53.3398 27.1305 53.8545 28.181 54.2913C29.2315 54.7281 30.9036 55.0871 32.3706 55.3889C33.8377 55.6906 35.0997 55.935 36.5901 56.4707C38.0805 57.0063 39.7993 57.8332 40.8432 58.5196C41.8872 59.2059 42.2564 59.7518 41.9113 59.9727C41.5663 60.1936 40.507 60.0894 39.3355 60.331C38.1639 60.5725 36.88 61.1597 35.5918 61.9133C34.3036 62.667 33.011 63.5868 31.9949 64.6498C30.9787 65.7127 30.2392 66.9187 30.0102 67.7764C29.7812 68.6341 30.0628 69.1436 30.634 69.297C31.2053 69.4504 32.066 69.2478 32.7283 68.7384C33.3907 68.2291 33.8546 67.4131 34.8066 66.5477C35.7585 65.6823 37.1984 64.7676 38.4385 64.1621C39.6787 63.5567 40.7188 63.2605 41.7226 63.2294C42.7264 63.1984 43.6937 63.4324 43.7178 64.1992C43.742 64.966 42.823 66.2656 42.1293 67.4066C41.4356 68.5475 40.9674 69.5299 40.6187 70.45C40.2701 71.3701 40.0411 72.2278 39.7012 72.8152C39.3613 73.4026 38.9105 73.7197 38.2898 74.3304C37.669 74.9412 36.8783 75.8455 36.8674 76.2614C36.8565 76.6772 37.6253 76.6045 38.4701 76.4513C39.3149 76.2981 40.2355 76.0644 40.9117 75.5888C41.5879 75.1133 42.0197 74.3958 42.504 73.364C42.9883 72.3322 43.5251 70.9859 44.3311 69.4992C45.1371 68.0126 46.2122 66.3856 46.8118 65.567C47.4114 64.7483 47.5354 64.7381 48.0882 64.9042C48.6412 65.0707 49.6231 65.414 50.6478 65.7589C51.6724 66.1038 52.7397 66.4503 53.7132 66.4655C54.6867 66.4807 55.5664 66.1646 56.3911 65.6634C57.2158 65.1621 57.9856 64.4759 58.7689 63.925C59.5523 63.3742 60.3491 62.9588 60.6519 62.1594C60.9548 61.36 60.7637 60.1766 60.5942 59.1483C60.4247 58.1201 60.2768 57.2469 59.785 57.432C59.2931 57.6171 58.4575 58.8605 57.5268 59.8209C56.596 60.7812 55.5702 61.4586 54.5186 61.8168C53.4669 62.1749 52.3895 62.2138 51.5453 62.155C50.7011 62.0961 50.0902 61.9396 50.0601 61.4563C50.0301 60.973 50.581 60.1632 51.1864 59.2298C51.7918 58.2965 52.4517 57.2398 53.0807 56.0566C53.7098 54.8734 54.3079 53.5636 54.8182 52.3473C55.3286 51.1309 55.751 50.0079 56.0277 49.5548C56.3044 49.1017 56.4359 49.3196 56.7748 49.7357C57.1141 50.1528 57.6617 50.77 58.3496 51.5755C59.0376 52.3811 59.8658 53.3748 60.5512 54.2767C61.2366 55.1786 61.7792 55.9886 62.1147 56.5502C62.4502 57.1118 62.5787 57.4249 62.5555 57.9834C62.5323 58.542 62.3574 59.3459 62.183 60.4584C62.0086 61.5709 61.8346 62.992 61.563 64.2264C61.2915 65.4609 60.9223 66.5087 60.6705 67.6378C60.4188 68.7668 60.2845 69.9772 60.2039 71.4209C60.1233 72.8647 60.0964 74.5418 60.0382 75.7838C59.98 77.0258 59.8905 77.8327 59.6463 77.6987C59.402 77.5646 59.0031 76.4897 58.5175 75.4598C58.0319 74.43 57.4598 73.4455 56.856 72.6911C56.2521 71.9368 55.6166 71.4128 54.8827 71.0589C54.1487 70.7049 53.3164 70.5212 52.7202 70.4519C52.124 70.3826 51.764 70.4276 51.5578 70.7964C51.3517 71.1652 51.2993 71.8577 51.6306 72.2552C51.9619 72.6527 52.6768 72.7552 53.2705 72.9209C53.8641 73.0866 54.3365 73.3155 54.8521 73.8545C55.3676 74.3936 55.9262 75.2426 56.4181 76.0316C56.91 76.8206 57.3351 77.5494 57.712 78.1607C58.089 78.7719 58.4177 79.2657 58.206 79.5186C57.9943 79.7715 57.2422 79.7834 56.4302 79.8029C55.6181 79.8224 54.746 79.8493 54.1232 79.8176C53.5004 79.7859 53.1269 79.6955 52.5721 79.6759C52.0173 79.6562 51.2813 79.7073 50.5453 79.7584C49.8093 79.8095 49.0732 79.8605 48.5599 79.8905C48.0466 79.9207 47.7558 79.9296 47.5695 80.193C47.3832 80.4564 47.3013 80.9743 47.5578 81.4832C47.8143 81.992 48.4092 82.4918 48.9652 82.8645C49.5212 83.2372 50.0383 83.4828 50.7377 83.3758C51.4372 83.2687 52.319 82.809 53.1754 82.5529C54.0318 82.2968 54.8627 82.2445 55.6918 82.2603C56.521 82.276 57.3482 82.3598 57.9744 82.4365C58.6006 82.5133 59.0256 82.5829 58.933 82.8887C58.8404 83.1945 58.2303 83.7367 57.583 84.3093C56.9358 84.8818 56.2515 85.4849 55.5013 86.1447C54.7511 86.8046 53.935 87.5212 53.2137 88.1548C52.4924 88.7884 51.8658 89.339 51.3781 89.8172C50.8904 90.2953 50.5415 90.7012 50.5138 91.1412C50.4862 91.5812 50.7798 92.0553 51.217 92.2753C51.6542 92.4954 52.2349 92.4614 53.0126 92.1343C53.7904 91.8073 54.765 91.1873 55.6239 90.5266C56.4828 89.866 57.226 89.1651 57.8792 88.3654C58.5324 87.5657 59.0956 86.6675 59.5359 86.0012C59.9762 85.3349 60.2937 84.9007 60.6653 84.5502C61.0369 84.1997 61.4627 83.9329 61.7994 83.8357C62.1362 83.7385 62.384 83.811 62.5535 84.1033C62.723 84.3957 62.8142 84.9081 62.7996 85.6213C62.7849 86.3345 62.6642 87.2484 62.7498 88.1333C62.8353 89.0183 63.1269 89.8741 63.5693 90.6625C64.0117 91.451 64.6049 92.1722 65.1471 92.8414C65.6892 93.5107 66.1804 94.1281 66.5708 94.5965C66.9612 95.0649 67.2508 95.3843 67.5946 95.7874C67.9384 96.1906 68.3363 96.6774 68.759 96.8378C69.1816 96.9983 69.6289 96.8323 69.7482 96.2773C69.8674 95.7224 69.6586 94.7786 69.2628 94.0554C68.867 93.3322 68.2843 92.8298 67.7315 92.2556C67.1788 91.6814 66.6562 91.0356 66.2622 90.2443C65.8681 89.453 65.6028 88.5162 65.2629 87.3495C64.923 86.1828 64.5087 84.7863 64.2672 83.8595C64.0258 82.9327 63.9572 82.4756 64.3183 82.2201C64.6794 81.9648 65.47 81.911 66.1808 81.8316C66.8916 81.7522 67.5226 81.6473 68.2185 81.6765C68.9144 81.7057 69.6751 81.8689 70.3677 82.1799C71.0602 82.4908 71.6844 82.9493 72.2355 83.278C72.7866 83.6066 73.2646 83.8054 73.6508 83.9736C74.037 84.1419 74.3314 84.2796 74.8122 84.2194C75.2929 84.1591 75.9601 83.9008 76.5492 83.549C77.1383 83.197 77.6493 82.7516 77.9956 82.2911C78.3419 81.8306 78.5235 81.3551 78.4827 80.9173C78.4418 80.4795 78.1785 80.0791 77.6742 79.9613C77.1699 79.8434 76.4246 80.0079 75.7612 80.2753C75.0978 80.5428 74.5167 80.9141 74.0563 80.9515C73.5962 80.9897 73.2577 80.696 72.8083 80.3254C72.359 79.9549 71.7989 79.5078 71.1818 79.2359C70.5648 78.964 69.8909 78.8674 69.139 78.8226C68.3871 78.7778 67.5575 78.7847 66.8253 78.9088C66.0932 79.0329 65.4587 79.2741 64.8901 79.4586C64.3215 79.643 63.8188 79.7706 63.4671 79.5172C63.1154 79.2638 62.9145 78.6294 62.7874 78.1021C62.6603 77.5748 62.6069 77.1547 62.8095 76.8027C63.012 76.4507 63.4704 76.167 63.8793 75.9315C64.2881 75.6958 64.6474 75.5085 64.7517 75.0623C64.856 74.6159 64.7054 73.9105 64.5435 73.1775C64.3815 72.4444 64.2081 71.6836 64.0167 70.9995C63.8252 70.3154 63.6156 69.7078 63.6072 69.1075C63.5988 68.5071 63.7916 67.914 63.9553 67.2016C64.1189 66.4891 64.2535 65.6575 64.4671 64.7286C64.6807 63.7997 64.9734 62.7736 65.2048 61.9362C65.4361 61.0989 65.6062 60.4503 65.7318 59.9593C65.8574 59.4683 65.9386 59.1347 66.1942 59.0368C66.4497 58.9389 66.8796 59.0765 67.5534 59.1279C68.2272 59.1792 69.1449 59.1441 69.8744 59.0687C70.6038 58.9933 71.145 58.8775 71.7764 58.7423C72.4078 58.6073 73.1294 58.4528 73.8012 58.2966C74.473 58.1404 75.095 57.9823 75.8057 57.8612C76.5165 57.7402 77.316 57.6561 78.1559 57.5509C78.9958 57.4456 79.876 57.3193 80.5557 57.2421C81.2354 57.1649 81.7145 57.1369 82.3567 56.9684C82.999 56.7999 83.8043 56.491 84.448 56.2663C85.0918 56.0416 85.5737 55.901 85.7589 56.0409C85.9441 56.1808 85.8324 56.601 85.3732 57.091C84.914 57.581 84.1074 58.1409 83.5605 58.7327C83.0136 59.3245 82.7266 59.948 82.4341 60.5884C82.1416 61.2288 81.8436 61.886 81.5464 62.5149C81.2492 63.1438 80.9528 63.7444 80.5587 64.4378C80.1645 65.1312 79.6727 65.9173 79.1031 66.4234C78.5334 66.9295 77.8859 67.1555 77.2571 67.4274C76.6284 67.6993 76.0186 68.0173 75.6163 68.4502C75.214 68.883 75.0192 69.4306 74.8094 69.972C74.5997 70.5135 74.3751 71.0487 74.519 71.4895C74.6628 71.9303 75.1751 72.2768 75.7011 72.4765C76.2272 72.6762 76.7672 72.7292 77.436 72.6454C78.1049 72.5615 78.9027 72.3409 79.6564 71.8923C80.41 71.4435 81.1194 70.767 81.6631 70.1072C82.2067 69.4474 82.5845 68.8045 83.0198 67.8806C83.4551 66.9567 83.9478 65.7518 84.413 64.4498C84.8783 63.1478 85.316 61.7486 85.8479 60.5792C86.3799 59.4097 87.0061 58.47 87.3467 58.0973C87.6873 57.7247 87.7423 57.9189 87.7352 58.3826C87.728 58.8464 87.6587 59.5796 87.8509 60.4692C88.0431 61.3588 88.4968 62.4045 88.8392 63.2994C89.1817 64.1943 89.4128 64.9382 89.8555 65.8366C90.2981 66.7351 90.9521 67.788 91.6907 68.8667C92.4294 69.9454 93.2525 71.0497 93.9252 71.9676C94.5979 72.8855 95.1201 73.6171 95.6576 74.1454C96.1951 74.6737 96.748 74.9988 97.2208 75.1287C97.6936 75.2586 98.0862 75.1933 98.3778 74.9716C98.6693 74.75 98.8597 74.3719 98.97 73.7986C99.0802 73.2253 99.1105 72.4569 98.8607 71.8482C98.611 71.2395 98.0814 70.7906 97.4455 70.3833C96.8095 69.976 96.0673 69.6103 95.1207 68.6261C94.174 67.6419 93.0231 66.0394 92.2433 64.6197C91.4635 63.2 91.0548 61.9633 90.6729 60.852C90.2911 59.7407 89.9359 58.7548 89.6656 57.9757C89.3953 57.1965 89.2099 56.624 89.0653 56.2115C88.9207 55.7989 88.8171 55.5464 89.0065 55.5871C89.196 55.6278 89.6784 55.9617 90.2727 56.2374C90.867 56.5131 91.573 56.7304 92.2664 56.8568C92.9599 56.9832 93.6407 57.0187 94.3433 56.987C95.0459 56.9553 95.7703 56.8565 96.3014 57.1589C96.8325 57.4613 97.1703 58.1649 97.7149 59.0115C98.2595 59.858 99.0107 60.8473 99.7517 61.617C100.493 62.3866 101.223 62.9366 101.716 63.2648C102.21 63.5931 102.466 63.6996 102.682 64.0973C102.899 64.495 103.075 65.1837 103.535 65.5594C103.994 65.9352 104.738 65.9981 105.127 65.7804C105.516 65.5626 105.55 65.0641 105.373 64.4058C105.196 63.7475 104.807 62.9294 104.331 62.3824C103.854 61.8354 103.289 61.5595 102.713 61.0942C102.136 60.629 101.549 59.9744 101.059 59.1039C100.569 58.2334 100.177 57.1473 99.8206 56.312C99.4647 55.4768 99.1452 54.8926 98.8826 54.414C98.6198 53.9355 98.4138 53.5625 97.9145 53.2524C97.4152 52.9422 96.6228 52.6948 95.9351 52.5729C95.2474 52.4511 94.6643 52.4549 94.109 52.4291C93.5537 52.4033 93.0261 52.348 92.6366 52.1758C92.2471 52.0036 91.9956 51.7143 91.8519 51.4289C91.7082 51.1435 91.6725 50.862 91.6981 50.5034C91.7236 50.1448 91.8107 49.7091 92.0344 49.4124C92.2581 49.1157 92.6186 48.9579 92.9848 48.7819C93.3511 48.606 93.7232 48.412 93.8826 47.8936C94.0419 47.3752 93.9885 46.5324 93.9812 45.5754C93.9739 44.6185 94.0128 43.5473 94.0848 42.6541C94.1568 41.7609 94.2619 41.0457 94.3593 40.2143C94.4567 39.3829 94.5463 38.4355 94.7145 37.5822C94.8826 36.729 95.1292 35.97 95.4141 35.4012C95.6989 34.8324 96.0219 34.4538 95.9925 33.9287C95.963 33.4036 95.5813 32.732 95.0131 31.9624C94.4449 31.1927 93.6904 30.325 93.1475 29.6172C92.6047 28.9094 92.2736 28.3615 91.7746 28.2463C91.2756 28.1311 90.6087 28.4486 90.0404 28.7148C89.472 28.9811 89.0021 29.1959 89.0395 29.4166C89.0769 29.6374 89.6216 29.8639 90.1529 30.1874C90.6842 30.5109 91.2022 30.9314 91.726 31.3338C92.2498 31.7363 92.7795 32.1206 93.1493 32.6334C93.519 33.1462 93.7291 33.7874 93.6001 34.38C93.4712 34.9726 93.0035 35.5166 92.397 36.2081C91.7905 36.8996 91.0452 37.7385 90.5778 38.4775C90.1104 39.2166 89.9208 39.8557 89.6555 40.5044C89.3902 41.1531 89.0491 41.8114 88.7696 42.5876C88.4902 43.3637 88.2724 44.2579 88.1969 45.0779C88.1214 45.8979 88.1882 46.6436 88.2035 47.2961C88.2187 47.9487 88.1825 48.508 88.1037 48.8343C88.025 49.1606 87.9038 49.2538 87.6456 49.013C87.3874 48.7723 86.9922 48.1976 86.5068 47.565C86.0214 46.9323 85.4458 46.2417 84.7911 45.6822C84.1364 45.1228 83.4028 44.6946 82.8661 44.1637C82.3294 43.6329 81.9898 42.9994 81.6409 42.3106C81.2919 41.6218 80.9335 40.8779 80.5352 40.4251C80.1368 39.9722 79.6984 39.8103 79.1268 39.5829C78.5552 39.3555 77.8504 39.0625 77.2619 38.8588C76.6735 38.6552 76.2015 38.541 75.7615 38.4401C75.3216 38.3392 74.9136 38.2516 74.4384 38.2591C73.9632 38.2666 73.4207 38.3693 72.9538 38.2675C72.4868 38.1656 72.0954 37.8592 71.7395 37.6395C71.3836 37.4197 71.0632 37.2864 71.0635 37.4814C71.0638 37.6764 71.3847 38.1997 71.7623 38.8285C72.1398 39.4574 72.574 40.1918 72.948 40.7473C73.3221 41.3029 73.6361 41.6796 73.9853 41.9479C74.3346 42.2163 74.719 42.3761 75.1454 42.379C75.5717 42.3819 76.04 42.2279 76.473 42.1824C76.906 42.1367 77.3038 42.1996 77.6402 42.3394C77.9766 42.4793 78.2516 42.6963 78.4637 43.0512C78.6757 43.4061 78.8247 43.8988 79.0311 44.4667C79.2375 45.0346 79.5013 45.6777 79.8316 46.2561C80.1619 46.8345 80.5586 47.3482 80.8886 47.7316C81.2186 48.115 81.4819 48.368 81.8194 48.6725C82.1568 48.9769 82.5686 49.3329 82.9795 49.7191C83.3904 50.1054 83.8005 50.522 84.107 50.9777C84.4135 51.4334 84.6164 51.9281 84.6565 52.2525C84.6966 52.5768 84.5738 52.731 84.109 52.9583C83.6442 53.1855 82.8374 53.4858 82.0651 53.7084C81.2928 53.9309 80.5549 54.0755 79.8608 54.1971C79.1666 54.3188 78.5163 54.4175 78.0149 54.3937C77.5135 54.3698 77.1611 54.2233 76.8298 54.0958C76.4985 53.9683 76.1882 53.8598 75.6711 54.0243C75.154 54.1889 74.43 54.6262 73.6857 55.0142C72.9414 55.4022 72.1768 55.7407 71.5687 55.8776C70.9605 56.0146 70.5088 55.9498 69.9633 55.7537C69.4179 55.5577 68.7788 55.2304 68.3569 54.8498C67.9351 54.4693 67.7305 54.0355 67.0032 53.3637C66.2759 52.692 65.0259 51.7825 64.0896 51.0547C63.1532 50.3268 62.5306 49.7807 61.8741 49.0872C61.2175 48.3936 60.527 47.5525 60.0389 46.8162C59.5509 46.0798 59.2652 45.4483 58.9271 44.7538C58.5891 44.0593 58.1987 43.3021 57.646 42.149C57.0933 40.996 56.3782 39.4474 55.0634 37.6233C53.7486 35.7992 51.8341 33.6998 50.7699 32.2726C49.7057 30.8453 49.4918 30.0901 49.3173 29.3143C49.1429 28.5386 49.008 27.7422 48.9604 27.0808C48.9128 26.4195 48.9526 25.8932 48.7381 25.237C48.5235 24.5808 48.0547 23.7947 47.8202 23.4017C47.5858 23.0086 47.5861 23.0096 47.0251 23.5891Z" fill="#BD0300" stroke="#BD0300" stroke-width="0.667769" stroke-miterlimit="3.2" stroke-linecap="round" stroke-linejoin="round"/>
</svg>
