<svg width="64" height="60" viewBox="0 0 64 60" fill="none" xmlns="http://www.w3.org/2000/svg">
<path d="M12.4671 12.3252C10.9386 12.9303 9.41003 13.6308 8.07256 14.4269C6.7351 15.223 5.58876 16.1147 4.79265 17.1974C3.99655 18.2801 3.55078 19.5539 2.81835 21.9741C2.08592 24.3942 1.06686 27.9607 1.00319 31.8776C0.939539 35.7945 1.83111 40.0615 3.55072 43.5962C5.27034 47.131 7.81785 49.9332 10.461 52.0349C13.1041 54.1367 15.8426 55.5378 19.2499 56.6205C22.6573 57.7032 26.7333 58.4675 29.8859 58.7859C33.0385 59.1043 35.2676 58.977 37.847 58.5948C40.4264 58.2127 43.3559 57.5758 45.999 56.6205C48.6421 55.6651 50.9986 54.3914 52.9093 52.9584C54.82 51.5254 56.2847 49.9332 57.4629 48.2455C58.6411 46.5577 59.5328 44.7745 60.2971 42.9275C61.0614 41.0805 61.6982 39.1699 62.1441 37.2274C62.5899 35.2849 62.8446 33.3106 62.7491 31.2725C62.6535 29.2345 62.2077 27.1328 60.7747 24.5534C59.3417 21.9739 56.9216 18.917 54.9154 16.9745C52.9092 15.032 51.317 14.204 49.4382 13.3442C47.5593 12.4844 45.394 11.5928 43.5788 10.7967C41.7637 10.0006 40.2989 9.30003 38.8978 8.66314C37.4966 8.02624 36.1591 7.45306 34.9172 7.16648C33.6753 6.87988 32.529 6.87987 30.873 7.03903C29.2171 7.19826 27.0517 7.51668 25.0455 7.89882C23.0393 8.28097 21.1924 8.72677 19.8868 9.20444C18.5811 9.68211 17.8169 10.1916 16.6705 10.7011C15.5241 11.2106 13.9957 11.7202 12.4671 12.3252Z" stroke="#BD0300" stroke-width="1.03236" stroke-miterlimit="3.2" stroke-linejoin="round"/>
<path d="M21.4865 14.8671C20.7286 14.595 19.213 14.0509 17.6196 13.7789C16.0262 13.5069 14.3552 13.5069 12.5675 13.0988C10.7798 12.6908 8.87546 11.8746 7.57357 11.4277C6.27166 10.9808 5.57217 10.903 4.60059 11.1168C3.62903 11.3305 2.38541 11.8358 2.22996 11.758C2.07452 11.6803 3.00721 11.0196 3.93993 10.4367C4.87264 9.85376 5.80529 9.34855 6.85459 9.23197C7.90391 9.11535 9.0698 9.38739 10.9158 9.65944C12.7618 9.93148 15.2878 10.2035 17.2504 10.6699C19.213 11.1362 20.612 11.7969 21.4865 12.1661C22.3609 12.5353 22.7107 12.613 22.9244 12.341C23.1382 12.0689 23.2159 11.4471 23.0216 10.767C22.8273 10.0869 22.3609 9.34855 22.0306 8.72674C21.7003 8.10492 21.5059 7.59972 21.1173 6.99735C20.7287 6.39496 20.1457 5.69545 19.8737 4.82102C19.6016 3.94659 19.6405 2.89732 19.8347 2.31438C20.0291 1.73144 20.3788 1.61485 21.0395 1.92576C21.7002 2.23667 22.6717 2.97505 23.2547 4.02436C23.8376 5.07367 24.032 6.43383 24.3623 7.36653C24.6926 8.29924 25.1589 8.80446 25.6253 9.15424C26.0917 9.504 26.558 9.6983 26.8495 9.48455C27.1409 9.2708 27.2576 8.64902 27.2187 8.00777C27.1798 7.36654 26.9855 6.70587 27.0438 6.14236C27.102 5.57884 27.413 5.11249 27.9182 4.97647C28.4235 4.84046 29.123 5.03477 29.6865 5.42341C30.25 5.81204 30.6775 6.39497 30.9107 6.91962C31.1439 7.44427 31.1828 7.91062 31.1245 8.53244C31.0662 9.15425 30.9107 9.93148 30.9885 10.3007C31.0662 10.6699 31.3771 10.631 31.7269 10.4755C32.0767 10.3201 32.4653 10.0481 32.679 9.54283C32.8928 9.03761 32.9317 8.29924 33.2426 7.54141C33.5535 6.78357 34.1364 6.00633 34.7388 5.30679C35.3412 4.60725 35.963 3.98546 36.4488 3.53853C36.9346 3.0916 37.2843 2.81957 37.7313 2.50867C38.1782 2.19777 38.7222 1.84802 39.2857 1.57597C39.8493 1.30392 40.4323 1.10961 40.8792 1.03188C41.3261 0.954162 41.637 0.993021 41.6175 1.43995C41.5981 1.88689 41.2484 2.74183 40.8792 3.49967C40.51 4.25751 40.1213 4.91815 39.6355 5.55941C39.1497 6.20066 38.5668 6.82245 38.1199 7.3471C37.673 7.87177 37.362 8.29925 37.1871 8.7073C37.0122 9.11536 36.9734 9.50398 37.2066 9.67886C37.4398 9.85373 37.945 9.81493 38.5474 9.54278C39.1498 9.27073 39.8493 8.76553 40.4711 8.4352C41.0929 8.10486 41.637 7.94942 42.2977 7.69681C42.9583 7.4442 43.7356 7.09444 44.7655 6.80297C45.7954 6.5115 47.0778 6.27831 48.2048 6.16173C49.3319 6.04512 50.3034 6.04512 51.0807 6.06458C51.8579 6.08404 52.4408 6.12295 52.7712 6.27834C53.1015 6.43379 53.1793 6.70583 52.7323 6.9973C52.2854 7.28877 51.3138 7.59967 50.4199 7.89114C49.5261 8.18261 48.71 8.45465 47.8356 8.86272C46.9612 9.27079 46.0284 9.81485 45.1152 10.2035C44.2019 10.5921 43.3081 10.8253 42.3365 11.0779C41.3649 11.3305 40.3156 11.6025 39.2857 11.8746C38.2559 12.1466 37.2455 12.4186 36.5459 12.7879C35.8464 13.1571 35.4578 13.6234 35.5355 13.9537C35.6132 14.2841 36.1573 14.4784 36.7791 14.6922C37.4009 14.9059 38.1004 15.1391 38.7028 15.2945C39.3052 15.45 39.8104 15.5277 40.4322 15.6831C41.054 15.8386 41.7924 16.0718 42.5114 16.3827C43.2303 16.6936 43.9298 17.0822 44.7265 17.5097C45.5232 17.9372 46.417 18.4035 47.0971 18.8699C47.7773 19.3362 48.2436 19.8026 48.6517 20.2106C49.0598 20.6187 49.4095 20.9685 49.1764 21.1045C48.9432 21.2406 48.1271 21.1627 47.4081 21.0268C46.6891 20.8907 46.0673 20.6965 45.018 20.3078C43.9687 19.9192 42.492 19.3363 41.5398 18.9476C40.5877 18.559 40.1602 18.3647 39.8104 18.1704C39.4606 17.976 39.1886 17.7817 38.7806 17.6846C38.3725 17.5874 37.8284 17.5874 37.5563 17.8207C37.2843 18.0539 37.2843 18.5202 37.5758 18.9865C37.8672 19.4529 38.4502 19.9192 39.0137 20.3079C39.5772 20.6965 40.1213 21.0074 40.6265 21.3766C41.1317 21.7458 41.5981 22.1733 42.0839 22.6008C42.5697 23.0283 43.0749 23.4558 43.4441 23.9027C43.8133 24.3496 44.0464 24.816 44.1242 25.2823C44.2019 25.7487 44.1242 26.215 43.755 26.2733C43.3858 26.3316 42.7251 25.9819 42.181 25.5349C41.637 25.088 41.2094 24.5439 40.6459 24.1164C40.0824 23.6889 39.3829 23.378 38.5862 22.7951C37.7895 22.2121 36.8957 21.3572 36.3128 20.7742C35.7298 20.1913 35.4578 19.8804 34.972 19.6667C34.4862 19.4529 33.7866 19.3363 33.4369 19.5306C33.0871 19.7249 33.0872 20.2301 33.1843 20.8519C33.2815 21.4737 33.4758 22.2121 33.845 23.0282C34.2142 23.8444 34.7583 24.7382 35.0498 25.496C35.3412 26.2538 35.38 26.8756 35.4966 27.4197C35.6132 27.9638 35.8076 28.4302 35.7104 28.8965C35.6133 29.3629 35.2246 29.8292 34.7777 29.7709C34.3307 29.7127 33.8255 29.1297 33.4369 28.4884C33.0482 27.8472 32.7762 27.1477 32.5625 26.7979C32.3488 26.4481 32.1934 26.4482 31.9796 26.7397C31.7659 27.0312 31.4938 27.6141 31.4355 28.1193C31.3773 28.6245 31.5327 29.052 31.6298 29.635C31.727 30.2179 31.7658 30.9563 31.8047 31.5975C31.8436 32.2388 31.8824 32.7828 31.8047 33.152C31.727 33.5212 31.5327 33.7156 31.2218 33.6573C30.9109 33.5989 30.4834 33.2881 30.1725 32.9383C29.8616 32.5885 29.6673 32.1999 29.5118 31.5975C29.3564 30.9951 29.2398 30.179 29.1815 29.3824C29.1233 28.5856 29.1232 27.8084 29.0454 27.0506C28.9677 26.2927 28.8122 25.5544 28.6956 24.7382C28.579 23.9221 28.5013 23.0283 28.3847 22.2121C28.2681 21.396 28.1127 20.6577 27.9573 19.8221C27.8018 18.9865 27.6464 18.0538 27.2383 17.5875C26.8302 17.1211 26.1695 17.1211 25.5088 17.2377C24.8482 17.3543 24.1876 17.5875 23.5658 18.0344C22.944 18.4813 22.361 19.142 21.642 19.6278C20.9231 20.1136 20.0681 20.4245 19.1354 20.8908C18.2027 21.3572 17.1923 21.979 16.2984 22.8534C15.4046 23.7278 14.6274 24.8548 14.1221 25.8653C13.6169 26.8757 13.3837 27.7695 13.1894 28.5857C12.995 29.4018 12.8397 30.1402 12.6453 30.626C12.451 31.1117 12.2178 31.3449 12.1012 31.1312C11.9846 30.9174 11.9846 30.2568 11.9264 29.7515C11.868 29.2463 11.7515 28.8966 11.7127 28.3719C11.6737 27.8472 11.7126 27.1477 11.9652 26.2733C12.2178 25.3989 12.6842 24.3496 13.1505 23.4752C13.6169 22.6008 14.0833 21.9012 14.5691 21.2989C15.0549 20.6965 15.56 20.1913 16.143 19.7638C16.7259 19.3363 17.3866 18.9866 18.0472 18.6756C18.7079 18.3647 19.3686 18.0927 19.8932 17.8595C20.4179 17.6263 20.8065 17.432 21.1757 16.9851C21.5449 16.5382 21.8947 15.8387 22.0695 15.4889C22.2444 15.1391 22.2443 15.1391 21.4865 14.8671Z" fill="#BD0300" stroke="#BD0300" stroke-width="0.619417" stroke-miterlimit="3.2" stroke-linejoin="round"/>
</svg>
