<svg width="37" height="37" viewBox="0 0 37 37" fill="none" xmlns="http://www.w3.org/2000/svg">
<circle cx="18.5" cy="18.5" r="18.5" fill="#EC8E8D"/>
<path d="M29.1816 11.5702C28.5645 10.9527 27.8317 10.4629 27.0252 10.1287C26.2187 9.79456 25.3542 9.62256 24.4812 9.62256C23.6082 9.62256 22.7438 9.79456 21.9373 10.1287C21.1307 10.4629 20.398 10.9527 19.7808 11.5702L18.5 12.851L17.2191 11.5702C15.9725 10.3236 14.2817 9.6232 12.5187 9.6232C10.7557 9.6232 9.06494 10.3236 7.81831 11.5702C6.57169 12.8168 5.87134 14.5076 5.87134 16.2706C5.87134 18.0336 6.57169 19.7244 7.81831 20.971L18.5 31.6527L29.1816 20.971C29.7991 20.3539 30.2889 19.6211 30.6231 18.8146C30.9573 18.0081 31.1293 17.1436 31.1293 16.2706C31.1293 15.3976 30.9573 14.5331 30.6231 13.7266C30.2889 12.9201 29.7991 12.1873 29.1816 11.5702Z" fill="#FAF2F6"/>
</svg>
