<svg width="419" height="443" viewBox="0 0 419 443" fill="none" xmlns="http://www.w3.org/2000/svg">
<path d="M201.928 89.8463C195.735 89.8463 190.543 88.5475 186.353 85.9514C182.163 83.3547 180.068 79.0266 180.068 72.9678C180.068 65.5237 185.443 57.1278 196.19 47.7795C206.938 38.2583 219.78 29.2564 234.717 20.7737C245.647 14.8879 256.668 9.95403 267.779 5.97247C279.074 1.99075 288.729 0 296.744 0C305.488 0 312.227 1.99075 316.963 5.97247C321.882 9.78094 324.341 15.9266 324.341 24.4091C324.341 33.238 319.969 41.4609 311.225 49.078C302.663 56.695 291.643 63.7061 278.163 70.1113C265.412 75.8242 252.114 80.5849 238.27 84.3933C224.607 88.0287 212.494 89.8463 201.928 89.8463Z" fill="#FBF2F7"/>
<path d="M183.893 443.002C157.661 443.002 133.343 439.54 110.937 432.615C88.5312 425.691 69.0395 415.563 52.4628 402.234C35.886 388.731 22.9526 372.371 13.6625 353.156C4.55432 333.94 0 312.041 0 287.459C0 263.569 3.73457 242.016 11.2032 222.8C18.854 203.412 29.5101 186.446 43.1724 171.905C56.8346 157.363 72.6827 145.159 90.7167 135.291C108.933 125.423 128.698 118.066 150.011 113.219C171.324 108.199 193.365 105.688 216.135 105.688C244.006 105.688 270.055 109.324 294.282 116.595C318.692 123.865 340.188 134.512 358.768 148.534C377.349 162.383 391.831 179.176 402.214 198.911C412.779 218.646 418.062 240.977 418.062 265.906C418.062 293.431 411.777 318.186 399.208 340.172C386.639 361.984 369.333 380.594 347.292 396.001C325.432 411.236 300.476 422.834 272.423 430.797C244.371 438.934 214.86 443.002 183.893 443.002Z" fill="#FBF2F7"/>
</svg>
